ISO-10303-21;
HEADER;
FILE_DESCRIPTION(('FreeCAD Model'),'2;1');
FILE_NAME('Open CASCADE Shape Model','2024-11-08T11:07:14',(''),(''),
  'Open CASCADE STEP processor 7.7','FreeCAD','Unknown');
FILE_SCHEMA(('AUTOMOTIVE_DESIGN { 1 0 10303 214 1 1 1 1 }'));
ENDSEC;
DATA;
#1 = APPLICATION_PROTOCOL_DEFINITION('international standard',
  'automotive_design',2000,#2);
#2 = APPLICATION_CONTEXT(
  'core data for automotive mechanical design processes');
#3 = SHAPE_DEFINITION_REPRESENTATION(#4,#10);
#4 = PRODUCT_DEFINITION_SHAPE('','',#5);
#5 = PRODUCT_DEFINITION('design','',#6,#9);
#6 = PRODUCT_DEFINITION_FORMATION('','',#7);
#7 = PRODUCT('armEnclosure','armEnclosure','',(#8));
#8 = PRODUCT_CONTEXT('',#2,'mechanical');
#9 = PRODUCT_DEFINITION_CONTEXT('part definition',#2,'design');
#10 = ADVANCED_BREP_SHAPE_REPRESENTATION('',(#11,#15),#836);
#11 = AXIS2_PLACEMENT_3D('',#12,#13,#14);
#12 = CARTESIAN_POINT('',(0.,0.,0.));
#13 = DIRECTION('',(0.,0.,1.));
#14 = DIRECTION('',(1.,0.,-0.));
#15 = MANIFOLD_SOLID_BREP('',#16);
#16 = CLOSED_SHELL('',(#17,#65,#96,#120,#296,#320,#337,#350,#382,#406,
    #430,#455,#480,#504,#528,#552,#576,#593,#632,#656,#688,#705,#730,
    #755,#780,#807,#824));
#17 = ADVANCED_FACE('',(#18),#60,.T.);
#18 = FACE_BOUND('',#19,.T.);
#19 = EDGE_LOOP('',(#20,#30,#38,#46,#54));
#20 = ORIENTED_EDGE('',*,*,#21,.T.);
#21 = EDGE_CURVE('',#22,#24,#26,.T.);
#22 = VERTEX_POINT('',#23);
#23 = CARTESIAN_POINT('',(-2.4E-14,-12.,-40.1));
#24 = VERTEX_POINT('',#25);
#25 = CARTESIAN_POINT('',(0.9,-12.,-40.1));
#26 = LINE('',#27,#28);
#27 = CARTESIAN_POINT('',(-8.48E-15,-12.,-40.1));
#28 = VECTOR('',#29,1.);
#29 = DIRECTION('',(1.,5.6E-16,-2.2E-16));
#30 = ORIENTED_EDGE('',*,*,#31,.T.);
#31 = EDGE_CURVE('',#24,#32,#34,.T.);
#32 = VERTEX_POINT('',#33);
#33 = CARTESIAN_POINT('',(2.,-13.1,-40.1));
#34 = LINE('',#35,#36);
#35 = CARTESIAN_POINT('',(0.95,-12.05,-40.1));
#36 = VECTOR('',#37,1.);
#37 = DIRECTION('',(0.707106781187,-0.707106781187,-4.7E-16));
#38 = ORIENTED_EDGE('',*,*,#39,.T.);
#39 = EDGE_CURVE('',#32,#40,#42,.T.);
#40 = VERTEX_POINT('',#41);
#41 = CARTESIAN_POINT('',(2.,-14.,-40.1));
#42 = LINE('',#43,#44);
#43 = CARTESIAN_POINT('',(2.,-12.,-40.1));
#44 = VECTOR('',#45,1.);
#45 = DIRECTION('',(5.6E-16,-1.,-3.3E-16));
#46 = ORIENTED_EDGE('',*,*,#47,.F.);
#47 = EDGE_CURVE('',#48,#40,#50,.T.);
#48 = VERTEX_POINT('',#49);
#49 = CARTESIAN_POINT('',(-2.2E-14,-14.,-40.1));
#50 = LINE('',#51,#52);
#51 = CARTESIAN_POINT('',(-6.93E-15,-14.,-40.1));
#52 = VECTOR('',#53,1.);
#53 = DIRECTION('',(1.,5.6E-16,-2.2E-16));
#54 = ORIENTED_EDGE('',*,*,#55,.F.);
#55 = EDGE_CURVE('',#22,#48,#56,.T.);
#56 = LINE('',#57,#58);
#57 = CARTESIAN_POINT('',(2.21E-15,-12.,-40.1));
#58 = VECTOR('',#59,1.);
#59 = DIRECTION('',(5.6E-16,-1.,-3.3E-16));
#60 = PLANE('',#61);
#61 = AXIS2_PLACEMENT_3D('',#62,#63,#64);
#62 = CARTESIAN_POINT('',(-8.48E-15,-12.,-40.1));
#63 = DIRECTION('',(-2.2E-16,4.4E-16,-1.));
#64 = DIRECTION('',(7.8E-16,-1.,-4.4E-16));
#65 = ADVANCED_FACE('',(#66),#91,.T.);
#66 = FACE_BOUND('',#67,.T.);
#67 = EDGE_LOOP('',(#68,#78,#84,#85));
#68 = ORIENTED_EDGE('',*,*,#69,.T.);
#69 = EDGE_CURVE('',#70,#72,#74,.T.);
#70 = VERTEX_POINT('',#71);
#71 = CARTESIAN_POINT('',(-1.2E-14,-12.,-27.1));
#72 = VERTEX_POINT('',#73);
#73 = CARTESIAN_POINT('',(0.9,-12.,-27.1));
#74 = LINE('',#75,#76);
#75 = CARTESIAN_POINT('',(-2.71E-15,-12.,-27.1));
#76 = VECTOR('',#77,1.);
#77 = DIRECTION('',(1.,5.6E-16,-2.2E-16));
#78 = ORIENTED_EDGE('',*,*,#79,.T.);
#79 = EDGE_CURVE('',#72,#24,#80,.T.);
#80 = LINE('',#81,#82);
#81 = CARTESIAN_POINT('',(0.9,-12.,-27.1));
#82 = VECTOR('',#83,1.);
#83 = DIRECTION('',(-4.4E-16,3.3E-16,-1.));
#84 = ORIENTED_EDGE('',*,*,#21,.F.);
#85 = ORIENTED_EDGE('',*,*,#86,.F.);
#86 = EDGE_CURVE('',#70,#22,#87,.T.);
#87 = LINE('',#88,#89);
#88 = CARTESIAN_POINT('',(3.65E-15,-12.,-27.1));
#89 = VECTOR('',#90,1.);
#90 = DIRECTION('',(-1.1E-16,1.1E-16,-1.));
#91 = PLANE('',#92);
#92 = AXIS2_PLACEMENT_3D('',#93,#94,#95);
#93 = CARTESIAN_POINT('',(-2.71E-15,-12.,-27.1));
#94 = DIRECTION('',(-5.6E-16,1.,3.3E-16));
#95 = DIRECTION('',(-4.4E-16,3.3E-16,-1.));
#96 = ADVANCED_FACE('',(#97),#115,.T.);
#97 = FACE_BOUND('',#98,.F.);
#98 = EDGE_LOOP('',(#99,#107,#108,#109));
#99 = ORIENTED_EDGE('',*,*,#100,.F.);
#100 = EDGE_CURVE('',#72,#101,#103,.T.);
#101 = VERTEX_POINT('',#102);
#102 = CARTESIAN_POINT('',(2.,-13.1,-27.1));
#103 = LINE('',#104,#105);
#104 = CARTESIAN_POINT('',(1.45,-12.55,-27.1));
#105 = VECTOR('',#106,1.);
#106 = DIRECTION('',(0.707106781187,-0.707106781187,-4.7E-16));
#107 = ORIENTED_EDGE('',*,*,#79,.T.);
#108 = ORIENTED_EDGE('',*,*,#31,.T.);
#109 = ORIENTED_EDGE('',*,*,#110,.F.);
#110 = EDGE_CURVE('',#101,#32,#111,.T.);
#111 = LINE('',#112,#113);
#112 = CARTESIAN_POINT('',(2.,-13.1,-27.1));
#113 = VECTOR('',#114,1.);
#114 = DIRECTION('',(-4.4E-16,3.3E-16,-1.));
#115 = PLANE('',#116);
#116 = AXIS2_PLACEMENT_3D('',#117,#118,#119);
#117 = CARTESIAN_POINT('',(1.45,-12.55,-27.1));
#118 = DIRECTION('',(0.707106781187,0.707106781187,7.E-17));
#119 = DIRECTION('',(3.405025253169E-16,-4.394974746831E-16,1.));
#120 = ADVANCED_FACE('',(#121,#206,#224,#258,#269,#280),#291,.T.);
#121 = FACE_BOUND('',#122,.T.);
#122 = EDGE_LOOP('',(#123,#134,#142,#151,#159,#167,#175,#183,#191,#200)
  );
#123 = ORIENTED_EDGE('',*,*,#124,.T.);
#124 = EDGE_CURVE('',#125,#127,#129,.T.);
#125 = VERTEX_POINT('',#126);
#126 = CARTESIAN_POINT('',(-2.9E-14,15.131424255502,-2.8));
#127 = VERTEX_POINT('',#128);
#128 = CARTESIAN_POINT('',(2.1E-14,-15.1314242555,-2.8));
#129 = CIRCLE('',#130,16.);
#130 = AXIS2_PLACEMENT_3D('',#131,#132,#133);
#131 = CARTESIAN_POINT('',(8.9E-16,-8.9E-16,-8.));
#132 = DIRECTION('',(1.,7.8E-16,1.1E-16));
#133 = DIRECTION('',(-7.8E-16,1.,5.6E-16));
#134 = ORIENTED_EDGE('',*,*,#135,.F.);
#135 = EDGE_CURVE('',#136,#127,#138,.T.);
#136 = VERTEX_POINT('',#137);
#137 = CARTESIAN_POINT('',(2.5E-14,-17.5,-2.8));
#138 = LINE('',#139,#140);
#139 = CARTESIAN_POINT('',(1.391E-14,-17.5,-2.8));
#140 = VECTOR('',#141,1.);
#141 = DIRECTION('',(-7.8E-16,1.,5.6E-16));
#142 = ORIENTED_EDGE('',*,*,#143,.T.);
#143 = EDGE_CURVE('',#136,#144,#146,.T.);
#144 = VERTEX_POINT('',#145);
#145 = CARTESIAN_POINT('',(1.2E-14,-17.5,-13.2));
#146 = CIRCLE('',#147,5.2);
#147 = AXIS2_PLACEMENT_3D('',#148,#149,#150);
#148 = CARTESIAN_POINT('',(1.449E-14,-17.5,-8.));
#149 = DIRECTION('',(1.,7.8E-16,1.1E-16));
#150 = DIRECTION('',(-7.8E-16,1.,5.6E-16));
#151 = ORIENTED_EDGE('',*,*,#152,.F.);
#152 = EDGE_CURVE('',#153,#144,#155,.T.);
#153 = VERTEX_POINT('',#154);
#154 = CARTESIAN_POINT('',(9.E-15,-16.,-13.2));
#155 = LINE('',#156,#157);
#156 = CARTESIAN_POINT('',(1.39E-14,-16.,-13.2));
#157 = VECTOR('',#158,1.);
#158 = DIRECTION('',(7.8E-16,-1.,-5.6E-16));
#159 = ORIENTED_EDGE('',*,*,#160,.T.);
#160 = EDGE_CURVE('',#153,#161,#163,.T.);
#161 = VERTEX_POINT('',#162);
#162 = CARTESIAN_POINT('',(-3.2E-14,-16.,-44.2));
#163 = LINE('',#164,#165);
#164 = CARTESIAN_POINT('',(1.39E-14,-16.,-13.2));
#165 = VECTOR('',#166,1.);
#166 = DIRECTION('',(1.1E-16,-1.1E-16,-1.));
#167 = ORIENTED_EDGE('',*,*,#168,.T.);
#168 = EDGE_CURVE('',#161,#169,#171,.T.);
#169 = VERTEX_POINT('',#170);
#170 = CARTESIAN_POINT('',(-8.6E-14,16.,-44.2));
#171 = LINE('',#172,#173);
#172 = CARTESIAN_POINT('',(1.734E-14,-16.,-44.2));
#173 = VECTOR('',#174,1.);
#174 = DIRECTION('',(-7.8E-16,1.,5.6E-16));
#175 = ORIENTED_EDGE('',*,*,#176,.T.);
#176 = EDGE_CURVE('',#169,#177,#179,.T.);
#177 = VERTEX_POINT('',#178);
#178 = CARTESIAN_POINT('',(-4.4E-14,16.,-13.2));
#179 = LINE('',#180,#181);
#180 = CARTESIAN_POINT('',(-7.53E-15,16.,-44.2));
#181 = VECTOR('',#182,1.);
#182 = DIRECTION('',(-1.1E-16,1.1E-16,1.));
#183 = ORIENTED_EDGE('',*,*,#184,.F.);
#184 = EDGE_CURVE('',#185,#177,#187,.T.);
#185 = VERTEX_POINT('',#186);
#186 = CARTESIAN_POINT('',(-4.7E-14,17.5,-13.2));
#187 = LINE('',#188,#189);
#188 = CARTESIAN_POINT('',(-1.213E-14,17.5,-13.2));
#189 = VECTOR('',#190,1.);
#190 = DIRECTION('',(7.8E-16,-1.,-5.6E-16));
#191 = ORIENTED_EDGE('',*,*,#192,.T.);
#192 = EDGE_CURVE('',#185,#193,#195,.T.);
#193 = VERTEX_POINT('',#194);
#194 = CARTESIAN_POINT('',(-3.3E-14,17.5,-2.8));
#195 = CIRCLE('',#196,5.2);
#196 = AXIS2_PLACEMENT_3D('',#197,#198,#199);
#197 = CARTESIAN_POINT('',(-1.271E-14,17.5,-8.));
#198 = DIRECTION('',(1.,7.8E-16,1.1E-16));
#199 = DIRECTION('',(-7.8E-16,1.,5.6E-16));
#200 = ORIENTED_EDGE('',*,*,#201,.F.);
#201 = EDGE_CURVE('',#125,#193,#202,.T.);
#202 = LINE('',#203,#204);
#203 = CARTESIAN_POINT('',(-1.145E-14,15.131424255502,-2.8));
#204 = VECTOR('',#205,1.);
#205 = DIRECTION('',(-7.8E-16,1.,5.6E-16));
#206 = FACE_BOUND('',#207,.T.);
#207 = EDGE_LOOP('',(#208,#216,#222,#223));
#208 = ORIENTED_EDGE('',*,*,#209,.T.);
#209 = EDGE_CURVE('',#48,#210,#212,.T.);
#210 = VERTEX_POINT('',#211);
#211 = CARTESIAN_POINT('',(-1.E-14,-14.,-27.1));
#212 = LINE('',#213,#214);
#213 = CARTESIAN_POINT('',(3.32E-15,-14.,-40.1));
#214 = VECTOR('',#215,1.);
#215 = DIRECTION('',(1.1E-16,-1.1E-16,1.));
#216 = ORIENTED_EDGE('',*,*,#217,.T.);
#217 = EDGE_CURVE('',#210,#70,#218,.T.);
#218 = LINE('',#219,#220);
#219 = CARTESIAN_POINT('',(4.76E-15,-14.,-27.1));
#220 = VECTOR('',#221,1.);
#221 = DIRECTION('',(-5.6E-16,1.,3.3E-16));
#222 = ORIENTED_EDGE('',*,*,#86,.T.);
#223 = ORIENTED_EDGE('',*,*,#55,.T.);
#224 = FACE_BOUND('',#225,.T.);
#225 = EDGE_LOOP('',(#226,#236,#244,#252));
#226 = ORIENTED_EDGE('',*,*,#227,.F.);
#227 = EDGE_CURVE('',#228,#230,#232,.T.);
#228 = VERTEX_POINT('',#229);
#229 = CARTESIAN_POINT('',(-3.8E-14,14.,-27.1));
#230 = VERTEX_POINT('',#231);
#231 = CARTESIAN_POINT('',(-3.6E-14,12.,-27.1));
#232 = LINE('',#233,#234);
#233 = CARTESIAN_POINT('',(-1.078E-14,14.,-27.1));
#234 = VECTOR('',#235,1.);
#235 = DIRECTION('',(5.6E-16,-1.,-3.3E-16));
#236 = ORIENTED_EDGE('',*,*,#237,.F.);
#237 = EDGE_CURVE('',#238,#228,#240,.T.);
#238 = VERTEX_POINT('',#239);
#239 = CARTESIAN_POINT('',(-5.E-14,14.,-40.1));
#240 = LINE('',#241,#242);
#241 = CARTESIAN_POINT('',(-1.222E-14,14.,-40.1));
#242 = VECTOR('',#243,1.);
#243 = DIRECTION('',(1.1E-16,-1.1E-16,1.));
#244 = ORIENTED_EDGE('',*,*,#245,.F.);
#245 = EDGE_CURVE('',#246,#238,#248,.T.);
#246 = VERTEX_POINT('',#247);
#247 = CARTESIAN_POINT('',(-4.8E-14,12.,-40.1));
#248 = LINE('',#249,#250);
#249 = CARTESIAN_POINT('',(-1.111E-14,12.,-40.1));
#250 = VECTOR('',#251,1.);
#251 = DIRECTION('',(-5.6E-16,1.,3.3E-16));
#252 = ORIENTED_EDGE('',*,*,#253,.F.);
#253 = EDGE_CURVE('',#230,#246,#254,.T.);
#254 = LINE('',#255,#256);
#255 = CARTESIAN_POINT('',(-9.67E-15,12.,-27.1));
#256 = VECTOR('',#257,1.);
#257 = DIRECTION('',(-1.1E-16,1.1E-16,-1.));
#258 = FACE_BOUND('',#259,.T.);
#259 = EDGE_LOOP('',(#260));
#260 = ORIENTED_EDGE('',*,*,#261,.T.);
#261 = EDGE_CURVE('',#262,#262,#264,.T.);
#262 = VERTEX_POINT('',#263);
#263 = CARTESIAN_POINT('',(1.8E-14,-15.4,-8.));
#264 = CIRCLE('',#265,2.1);
#265 = AXIS2_PLACEMENT_3D('',#266,#267,#268);
#266 = CARTESIAN_POINT('',(1.993E-14,-17.5,-8.));
#267 = DIRECTION('',(-1.,-4.4E-16,3.3E-16));
#268 = DIRECTION('',(-4.4E-16,1.,5.6E-16));
#269 = FACE_BOUND('',#270,.T.);
#270 = EDGE_LOOP('',(#271));
#271 = ORIENTED_EDGE('',*,*,#272,.T.);
#272 = EDGE_CURVE('',#273,#273,#275,.T.);
#273 = VERTEX_POINT('',#274);
#274 = CARTESIAN_POINT('',(-4.8E-14,19.6,-8.));
#275 = CIRCLE('',#276,2.1);
#276 = AXIS2_PLACEMENT_3D('',#277,#278,#279);
#277 = CARTESIAN_POINT('',(-3.059E-14,17.5,-8.));
#278 = DIRECTION('',(-1.,-4.4E-16,3.3E-16));
#279 = DIRECTION('',(-4.4E-16,1.,5.6E-16));
#280 = FACE_BOUND('',#281,.T.);
#281 = EDGE_LOOP('',(#282));
#282 = ORIENTED_EDGE('',*,*,#283,.T.);
#283 = EDGE_CURVE('',#284,#284,#286,.T.);
#284 = VERTEX_POINT('',#285);
#285 = CARTESIAN_POINT('',(-1.3E-14,4.5,3.E-15));
#286 = CIRCLE('',#287,4.5);
#287 = AXIS2_PLACEMENT_3D('',#288,#289,#290);
#288 = CARTESIAN_POINT('',(-4.44E-15,1.8E-16,-1.07E-15));
#289 = DIRECTION('',(-1.,-4.4E-16,3.3E-16));
#290 = DIRECTION('',(-4.4E-16,1.,5.6E-16));
#291 = PLANE('',#292);
#292 = AXIS2_PLACEMENT_3D('',#293,#294,#295);
#293 = CARTESIAN_POINT('',(-6.53E-15,3.07E-15,-19.60019068712));
#294 = DIRECTION('',(1.,1.67E-15,5.6E-16));
#295 = DIRECTION('',(-1.67E-15,1.,5.6E-16));
#296 = ADVANCED_FACE('',(#297),#315,.T.);
#297 = FACE_BOUND('',#298,.T.);
#298 = EDGE_LOOP('',(#299,#307,#313,#314));
#299 = ORIENTED_EDGE('',*,*,#300,.F.);
#300 = EDGE_CURVE('',#301,#101,#303,.T.);
#301 = VERTEX_POINT('',#302);
#302 = CARTESIAN_POINT('',(2.,-14.,-27.1));
#303 = LINE('',#304,#305);
#304 = CARTESIAN_POINT('',(2.,-14.,-27.1));
#305 = VECTOR('',#306,1.);
#306 = DIRECTION('',(-5.6E-16,1.,3.3E-16));
#307 = ORIENTED_EDGE('',*,*,#308,.F.);
#308 = EDGE_CURVE('',#40,#301,#309,.T.);
#309 = LINE('',#310,#311);
#310 = CARTESIAN_POINT('',(2.,-14.,-40.1));
#311 = VECTOR('',#312,1.);
#312 = DIRECTION('',(1.1E-16,-1.1E-16,1.));
#313 = ORIENTED_EDGE('',*,*,#39,.F.);
#314 = ORIENTED_EDGE('',*,*,#110,.F.);
#315 = PLANE('',#316);
#316 = AXIS2_PLACEMENT_3D('',#317,#318,#319);
#317 = CARTESIAN_POINT('',(2.,1.43E-14,-33.6));
#318 = DIRECTION('',(1.,1.E-15,-1.1E-16));
#319 = DIRECTION('',(-1.E-15,1.,3.3E-16));
#320 = ADVANCED_FACE('',(#321),#332,.T.);
#321 = FACE_BOUND('',#322,.T.);
#322 = EDGE_LOOP('',(#323,#324,#325,#331));
#323 = ORIENTED_EDGE('',*,*,#47,.T.);
#324 = ORIENTED_EDGE('',*,*,#308,.T.);
#325 = ORIENTED_EDGE('',*,*,#326,.F.);
#326 = EDGE_CURVE('',#210,#301,#327,.T.);
#327 = LINE('',#328,#329);
#328 = CARTESIAN_POINT('',(-1.15E-15,-14.,-27.1));
#329 = VECTOR('',#330,1.);
#330 = DIRECTION('',(1.,5.6E-16,-2.2E-16));
#331 = ORIENTED_EDGE('',*,*,#209,.F.);
#332 = PLANE('',#333);
#333 = AXIS2_PLACEMENT_3D('',#334,#335,#336);
#334 = CARTESIAN_POINT('',(-6.93E-15,-14.,-40.1));
#335 = DIRECTION('',(5.6E-16,-1.,-3.3E-16));
#336 = DIRECTION('',(4.4E-16,-3.3E-16,1.));
#337 = ADVANCED_FACE('',(#338),#345,.T.);
#338 = FACE_BOUND('',#339,.T.);
#339 = EDGE_LOOP('',(#340,#341,#342,#343,#344));
#340 = ORIENTED_EDGE('',*,*,#69,.F.);
#341 = ORIENTED_EDGE('',*,*,#217,.F.);
#342 = ORIENTED_EDGE('',*,*,#326,.T.);
#343 = ORIENTED_EDGE('',*,*,#300,.T.);
#344 = ORIENTED_EDGE('',*,*,#100,.F.);
#345 = PLANE('',#346);
#346 = AXIS2_PLACEMENT_3D('',#347,#348,#349);
#347 = CARTESIAN_POINT('',(-1.15E-15,-14.,-27.1));
#348 = DIRECTION('',(2.2E-16,-4.4E-16,1.));
#349 = DIRECTION('',(-7.8E-16,1.,4.4E-16));
#350 = ADVANCED_FACE('',(#351),#377,.T.);
#351 = FACE_BOUND('',#352,.T.);
#352 = EDGE_LOOP('',(#353,#361,#370,#376));
#353 = ORIENTED_EDGE('',*,*,#354,.T.);
#354 = EDGE_CURVE('',#125,#355,#357,.T.);
#355 = VERTEX_POINT('',#356);
#356 = CARTESIAN_POINT('',(-2.,15.131424255502,-2.8));
#357 = LINE('',#358,#359);
#358 = CARTESIAN_POINT('',(-1.574E-14,15.131424255502,-2.8));
#359 = VECTOR('',#360,1.);
#360 = DIRECTION('',(-1.,-1.22E-15,-4.4E-16));
#361 = ORIENTED_EDGE('',*,*,#362,.T.);
#362 = EDGE_CURVE('',#355,#363,#365,.T.);
#363 = VERTEX_POINT('',#364);
#364 = CARTESIAN_POINT('',(-2.,-15.1314242555,-2.8));
#365 = CIRCLE('',#366,16.);
#366 = AXIS2_PLACEMENT_3D('',#367,#368,#369);
#367 = CARTESIAN_POINT('',(-2.,-2.22E-15,-8.));
#368 = DIRECTION('',(1.,7.8E-16,1.1E-16));
#369 = DIRECTION('',(-7.8E-16,1.,5.6E-16));
#370 = ORIENTED_EDGE('',*,*,#371,.F.);
#371 = EDGE_CURVE('',#127,#363,#372,.T.);
#372 = LINE('',#373,#374);
#373 = CARTESIAN_POINT('',(1.45E-14,-15.1314242555,-2.8));
#374 = VECTOR('',#375,1.);
#375 = DIRECTION('',(-1.,-1.22E-15,-4.4E-16));
#376 = ORIENTED_EDGE('',*,*,#124,.F.);
#377 = CYLINDRICAL_SURFACE('',#378,16.);
#378 = AXIS2_PLACEMENT_3D('',#379,#380,#381);
#379 = CARTESIAN_POINT('',(-1.78E-15,8.9E-16,-8.));
#380 = DIRECTION('',(1.,1.44E-15,2.2E-16));
#381 = DIRECTION('',(-1.44E-15,1.,6.7E-16));
#382 = ADVANCED_FACE('',(#383),#401,.F.);
#383 = FACE_BOUND('',#384,.F.);
#384 = EDGE_LOOP('',(#385,#386,#394,#400));
#385 = ORIENTED_EDGE('',*,*,#354,.T.);
#386 = ORIENTED_EDGE('',*,*,#387,.T.);
#387 = EDGE_CURVE('',#355,#388,#390,.T.);
#388 = VERTEX_POINT('',#389);
#389 = CARTESIAN_POINT('',(-2.,17.5,-2.8));
#390 = LINE('',#391,#392);
#391 = CARTESIAN_POINT('',(-2.,15.131424255502,-2.8));
#392 = VECTOR('',#393,1.);
#393 = DIRECTION('',(-7.8E-16,1.,5.6E-16));
#394 = ORIENTED_EDGE('',*,*,#395,.F.);
#395 = EDGE_CURVE('',#193,#388,#396,.T.);
#396 = LINE('',#397,#398);
#397 = CARTESIAN_POINT('',(-1.811E-14,17.5,-2.8));
#398 = VECTOR('',#399,1.);
#399 = DIRECTION('',(-1.,-1.22E-15,-4.4E-16));
#400 = ORIENTED_EDGE('',*,*,#201,.F.);
#401 = PLANE('',#402);
#402 = AXIS2_PLACEMENT_3D('',#403,#404,#405);
#403 = CARTESIAN_POINT('',(-1.574E-14,15.131424255502,-2.8));
#404 = DIRECTION('',(0.,2.2E-16,-1.));
#405 = DIRECTION('',(-1.E-15,1.,2.2E-16));
#406 = ADVANCED_FACE('',(#407),#425,.F.);
#407 = FACE_BOUND('',#408,.F.);
#408 = EDGE_LOOP('',(#409,#417,#423,#424));
#409 = ORIENTED_EDGE('',*,*,#410,.T.);
#410 = EDGE_CURVE('',#136,#411,#413,.T.);
#411 = VERTEX_POINT('',#412);
#412 = CARTESIAN_POINT('',(-2.,-17.5,-2.8));
#413 = LINE('',#414,#415);
#414 = CARTESIAN_POINT('',(1.686E-14,-17.5,-2.8));
#415 = VECTOR('',#416,1.);
#416 = DIRECTION('',(-1.,-1.22E-15,-4.4E-16));
#417 = ORIENTED_EDGE('',*,*,#418,.T.);
#418 = EDGE_CURVE('',#411,#363,#419,.T.);
#419 = LINE('',#420,#421);
#420 = CARTESIAN_POINT('',(-2.,-17.5,-2.8));
#421 = VECTOR('',#422,1.);
#422 = DIRECTION('',(-7.8E-16,1.,5.6E-16));
#423 = ORIENTED_EDGE('',*,*,#371,.F.);
#424 = ORIENTED_EDGE('',*,*,#135,.F.);
#425 = PLANE('',#426);
#426 = AXIS2_PLACEMENT_3D('',#427,#428,#429);
#427 = CARTESIAN_POINT('',(1.686E-14,-17.5,-2.8));
#428 = DIRECTION('',(0.,2.2E-16,-1.));
#429 = DIRECTION('',(-1.E-15,1.,2.2E-16));
#430 = ADVANCED_FACE('',(#431),#450,.T.);
#431 = FACE_BOUND('',#432,.T.);
#432 = EDGE_LOOP('',(#433,#441,#448,#449));
#433 = ORIENTED_EDGE('',*,*,#434,.T.);
#434 = EDGE_CURVE('',#185,#435,#437,.T.);
#435 = VERTEX_POINT('',#436);
#436 = CARTESIAN_POINT('',(-2.,17.5,-13.2));
#437 = LINE('',#438,#439);
#438 = CARTESIAN_POINT('',(-2.042E-14,17.5,-13.2));
#439 = VECTOR('',#440,1.);
#440 = DIRECTION('',(-1.,-1.22E-15,-4.4E-16));
#441 = ORIENTED_EDGE('',*,*,#442,.T.);
#442 = EDGE_CURVE('',#435,#388,#443,.T.);
#443 = CIRCLE('',#444,5.2);
#444 = AXIS2_PLACEMENT_3D('',#445,#446,#447);
#445 = CARTESIAN_POINT('',(-2.,17.5,-8.));
#446 = DIRECTION('',(1.,7.8E-16,1.1E-16));
#447 = DIRECTION('',(-7.8E-16,1.,5.6E-16));
#448 = ORIENTED_EDGE('',*,*,#395,.F.);
#449 = ORIENTED_EDGE('',*,*,#192,.F.);
#450 = CYLINDRICAL_SURFACE('',#451,5.2);
#451 = AXIS2_PLACEMENT_3D('',#452,#453,#454);
#452 = CARTESIAN_POINT('',(-1.926E-14,17.5,-8.));
#453 = DIRECTION('',(1.,1.44E-15,2.2E-16));
#454 = DIRECTION('',(-1.44E-15,1.,6.7E-16));
#455 = ADVANCED_FACE('',(#456),#475,.T.);
#456 = FACE_BOUND('',#457,.T.);
#457 = EDGE_LOOP('',(#458,#459,#468,#474));
#458 = ORIENTED_EDGE('',*,*,#410,.T.);
#459 = ORIENTED_EDGE('',*,*,#460,.T.);
#460 = EDGE_CURVE('',#411,#461,#463,.T.);
#461 = VERTEX_POINT('',#462);
#462 = CARTESIAN_POINT('',(-2.,-17.5,-13.2));
#463 = CIRCLE('',#464,5.2);
#464 = AXIS2_PLACEMENT_3D('',#465,#466,#467);
#465 = CARTESIAN_POINT('',(-2.,-17.5,-8.));
#466 = DIRECTION('',(1.,7.8E-16,1.1E-16));
#467 = DIRECTION('',(-7.8E-16,1.,5.6E-16));
#468 = ORIENTED_EDGE('',*,*,#469,.F.);
#469 = EDGE_CURVE('',#144,#461,#470,.T.);
#470 = LINE('',#471,#472);
#471 = CARTESIAN_POINT('',(1.456E-14,-17.5,-13.2));
#472 = VECTOR('',#473,1.);
#473 = DIRECTION('',(-1.,-1.22E-15,-4.4E-16));
#474 = ORIENTED_EDGE('',*,*,#143,.F.);
#475 = CYLINDRICAL_SURFACE('',#476,5.2);
#476 = AXIS2_PLACEMENT_3D('',#477,#478,#479);
#477 = CARTESIAN_POINT('',(1.571E-14,-17.5,-8.));
#478 = DIRECTION('',(1.,1.44E-15,2.2E-16));
#479 = DIRECTION('',(-1.44E-15,1.,6.7E-16));
#480 = ADVANCED_FACE('',(#481),#499,.F.);
#481 = FACE_BOUND('',#482,.F.);
#482 = EDGE_LOOP('',(#483,#484,#492,#498));
#483 = ORIENTED_EDGE('',*,*,#434,.T.);
#484 = ORIENTED_EDGE('',*,*,#485,.T.);
#485 = EDGE_CURVE('',#435,#486,#488,.T.);
#486 = VERTEX_POINT('',#487);
#487 = CARTESIAN_POINT('',(-2.,16.,-13.2));
#488 = LINE('',#489,#490);
#489 = CARTESIAN_POINT('',(-2.,17.5,-13.2));
#490 = VECTOR('',#491,1.);
#491 = DIRECTION('',(7.8E-16,-1.,-5.6E-16));
#492 = ORIENTED_EDGE('',*,*,#493,.F.);
#493 = EDGE_CURVE('',#177,#486,#494,.T.);
#494 = LINE('',#495,#496);
#495 = CARTESIAN_POINT('',(-1.892E-14,16.,-13.2));
#496 = VECTOR('',#497,1.);
#497 = DIRECTION('',(-1.,-1.22E-15,-4.4E-16));
#498 = ORIENTED_EDGE('',*,*,#184,.F.);
#499 = PLANE('',#500);
#500 = AXIS2_PLACEMENT_3D('',#501,#502,#503);
#501 = CARTESIAN_POINT('',(-2.042E-14,17.5,-13.2));
#502 = DIRECTION('',(0.,-2.2E-16,1.));
#503 = DIRECTION('',(1.E-15,-1.,-2.2E-16));
#504 = ADVANCED_FACE('',(#505),#523,.F.);
#505 = FACE_BOUND('',#506,.F.);
#506 = EDGE_LOOP('',(#507,#515,#521,#522));
#507 = ORIENTED_EDGE('',*,*,#508,.T.);
#508 = EDGE_CURVE('',#153,#509,#511,.T.);
#509 = VERTEX_POINT('',#510);
#510 = CARTESIAN_POINT('',(-2.,-16.,-13.2));
#511 = LINE('',#512,#513);
#512 = CARTESIAN_POINT('',(1.306E-14,-16.,-13.2));
#513 = VECTOR('',#514,1.);
#514 = DIRECTION('',(-1.,-1.22E-15,-4.4E-16));
#515 = ORIENTED_EDGE('',*,*,#516,.T.);
#516 = EDGE_CURVE('',#509,#461,#517,.T.);
#517 = LINE('',#518,#519);
#518 = CARTESIAN_POINT('',(-2.,-16.,-13.2));
#519 = VECTOR('',#520,1.);
#520 = DIRECTION('',(7.8E-16,-1.,-5.6E-16));
#521 = ORIENTED_EDGE('',*,*,#469,.F.);
#522 = ORIENTED_EDGE('',*,*,#152,.F.);
#523 = PLANE('',#524);
#524 = AXIS2_PLACEMENT_3D('',#525,#526,#527);
#525 = CARTESIAN_POINT('',(1.306E-14,-16.,-13.2));
#526 = DIRECTION('',(0.,-2.2E-16,1.));
#527 = DIRECTION('',(1.E-15,-1.,-2.2E-16));
#528 = ADVANCED_FACE('',(#529),#547,.T.);
#529 = FACE_BOUND('',#530,.T.);
#530 = EDGE_LOOP('',(#531,#539,#545,#546));
#531 = ORIENTED_EDGE('',*,*,#532,.T.);
#532 = EDGE_CURVE('',#169,#533,#535,.T.);
#533 = VERTEX_POINT('',#534);
#534 = CARTESIAN_POINT('',(-2.,16.,-44.2));
#535 = LINE('',#536,#537);
#536 = CARTESIAN_POINT('',(-2.58E-14,16.,-44.2));
#537 = VECTOR('',#538,1.);
#538 = DIRECTION('',(-1.,-1.22E-15,-4.4E-16));
#539 = ORIENTED_EDGE('',*,*,#540,.T.);
#540 = EDGE_CURVE('',#533,#486,#541,.T.);
#541 = LINE('',#542,#543);
#542 = CARTESIAN_POINT('',(-2.,16.,-44.2));
#543 = VECTOR('',#544,1.);
#544 = DIRECTION('',(-1.1E-16,1.1E-16,1.));
#545 = ORIENTED_EDGE('',*,*,#493,.F.);
#546 = ORIENTED_EDGE('',*,*,#176,.F.);
#547 = PLANE('',#548);
#548 = AXIS2_PLACEMENT_3D('',#549,#550,#551);
#549 = CARTESIAN_POINT('',(-2.58E-14,16.,-44.2));
#550 = DIRECTION('',(-7.8E-16,1.,5.6E-16));
#551 = DIRECTION('',(2.2E-16,-5.6E-16,1.));
#552 = ADVANCED_FACE('',(#553),#571,.T.);
#553 = FACE_BOUND('',#554,.T.);
#554 = EDGE_LOOP('',(#555,#556,#564,#570));
#555 = ORIENTED_EDGE('',*,*,#508,.T.);
#556 = ORIENTED_EDGE('',*,*,#557,.T.);
#557 = EDGE_CURVE('',#509,#558,#560,.T.);
#558 = VERTEX_POINT('',#559);
#559 = CARTESIAN_POINT('',(-2.,-16.,-44.2));
#560 = LINE('',#561,#562);
#561 = CARTESIAN_POINT('',(-2.,-16.,-13.2));
#562 = VECTOR('',#563,1.);
#563 = DIRECTION('',(1.1E-16,-1.1E-16,-1.));
#564 = ORIENTED_EDGE('',*,*,#565,.F.);
#565 = EDGE_CURVE('',#161,#558,#566,.T.);
#566 = LINE('',#567,#568);
#567 = CARTESIAN_POINT('',(6.17E-15,-16.,-44.2));
#568 = VECTOR('',#569,1.);
#569 = DIRECTION('',(-1.,-1.22E-15,-4.4E-16));
#570 = ORIENTED_EDGE('',*,*,#160,.F.);
#571 = PLANE('',#572);
#572 = AXIS2_PLACEMENT_3D('',#573,#574,#575);
#573 = CARTESIAN_POINT('',(1.306E-14,-16.,-13.2));
#574 = DIRECTION('',(7.8E-16,-1.,-5.6E-16));
#575 = DIRECTION('',(-2.2E-16,5.6E-16,-1.));
#576 = ADVANCED_FACE('',(#577),#588,.T.);
#577 = FACE_BOUND('',#578,.T.);
#578 = EDGE_LOOP('',(#579,#580,#586,#587));
#579 = ORIENTED_EDGE('',*,*,#565,.T.);
#580 = ORIENTED_EDGE('',*,*,#581,.T.);
#581 = EDGE_CURVE('',#558,#533,#582,.T.);
#582 = LINE('',#583,#584);
#583 = CARTESIAN_POINT('',(-2.,-16.,-44.2));
#584 = VECTOR('',#585,1.);
#585 = DIRECTION('',(-7.8E-16,1.,5.6E-16));
#586 = ORIENTED_EDGE('',*,*,#532,.F.);
#587 = ORIENTED_EDGE('',*,*,#168,.F.);
#588 = PLANE('',#589);
#589 = AXIS2_PLACEMENT_3D('',#590,#591,#592);
#590 = CARTESIAN_POINT('',(6.17E-15,-16.,-44.2));
#591 = DIRECTION('',(0.,2.2E-16,-1.));
#592 = DIRECTION('',(-1.E-15,1.,2.2E-16));
#593 = ADVANCED_FACE('',(#594),#627,.F.);
#594 = FACE_BOUND('',#595,.F.);
#595 = EDGE_LOOP('',(#596,#604,#605,#613,#621));
#596 = ORIENTED_EDGE('',*,*,#597,.F.);
#597 = EDGE_CURVE('',#230,#598,#600,.T.);
#598 = VERTEX_POINT('',#599);
#599 = CARTESIAN_POINT('',(0.9,12.,-27.1));
#600 = LINE('',#601,#602);
#601 = CARTESIAN_POINT('',(-2.136E-14,12.,-27.1));
#602 = VECTOR('',#603,1.);
#603 = DIRECTION('',(1.,5.6E-16,-2.2E-16));
#604 = ORIENTED_EDGE('',*,*,#227,.F.);
#605 = ORIENTED_EDGE('',*,*,#606,.T.);
#606 = EDGE_CURVE('',#228,#607,#609,.T.);
#607 = VERTEX_POINT('',#608);
#608 = CARTESIAN_POINT('',(2.,14.,-27.1));
#609 = LINE('',#610,#611);
#610 = CARTESIAN_POINT('',(-2.292E-14,14.,-27.1));
#611 = VECTOR('',#612,1.);
#612 = DIRECTION('',(1.,5.6E-16,-2.2E-16));
#613 = ORIENTED_EDGE('',*,*,#614,.T.);
#614 = EDGE_CURVE('',#607,#615,#617,.T.);
#615 = VERTEX_POINT('',#616);
#616 = CARTESIAN_POINT('',(2.,13.1,-27.1));
#617 = LINE('',#618,#619);
#618 = CARTESIAN_POINT('',(2.,14.,-27.1));
#619 = VECTOR('',#620,1.);
#620 = DIRECTION('',(5.6E-16,-1.,-3.3E-16));
#621 = ORIENTED_EDGE('',*,*,#622,.F.);
#622 = EDGE_CURVE('',#598,#615,#623,.T.);
#623 = LINE('',#624,#625);
#624 = CARTESIAN_POINT('',(1.45,12.55,-27.1));
#625 = VECTOR('',#626,1.);
#626 = DIRECTION('',(0.707106781187,0.707106781187,1.6E-16));
#627 = PLANE('',#628);
#628 = AXIS2_PLACEMENT_3D('',#629,#630,#631);
#629 = CARTESIAN_POINT('',(-2.292E-14,14.,-27.1));
#630 = DIRECTION('',(-2.2E-16,4.4E-16,-1.));
#631 = DIRECTION('',(7.8E-16,-1.,-4.4E-16));
#632 = ADVANCED_FACE('',(#633),#651,.F.);
#633 = FACE_BOUND('',#634,.F.);
#634 = EDGE_LOOP('',(#635,#636,#644,#650));
#635 = ORIENTED_EDGE('',*,*,#597,.T.);
#636 = ORIENTED_EDGE('',*,*,#637,.T.);
#637 = EDGE_CURVE('',#598,#638,#640,.T.);
#638 = VERTEX_POINT('',#639);
#639 = CARTESIAN_POINT('',(0.9,12.,-40.1));
#640 = LINE('',#641,#642);
#641 = CARTESIAN_POINT('',(0.9,12.,-27.1));
#642 = VECTOR('',#643,1.);
#643 = DIRECTION('',(-4.4E-16,3.3E-16,-1.));
#644 = ORIENTED_EDGE('',*,*,#645,.F.);
#645 = EDGE_CURVE('',#246,#638,#646,.T.);
#646 = LINE('',#647,#648);
#647 = CARTESIAN_POINT('',(-2.713E-14,12.,-40.1));
#648 = VECTOR('',#649,1.);
#649 = DIRECTION('',(1.,5.6E-16,-2.2E-16));
#650 = ORIENTED_EDGE('',*,*,#253,.F.);
#651 = PLANE('',#652);
#652 = AXIS2_PLACEMENT_3D('',#653,#654,#655);
#653 = CARTESIAN_POINT('',(-2.136E-14,12.,-27.1));
#654 = DIRECTION('',(-5.6E-16,1.,3.3E-16));
#655 = DIRECTION('',(-4.4E-16,3.3E-16,-1.));
#656 = ADVANCED_FACE('',(#657),#683,.F.);
#657 = FACE_BOUND('',#658,.F.);
#658 = EDGE_LOOP('',(#659,#660,#668,#676,#682));
#659 = ORIENTED_EDGE('',*,*,#645,.T.);
#660 = ORIENTED_EDGE('',*,*,#661,.T.);
#661 = EDGE_CURVE('',#638,#662,#664,.T.);
#662 = VERTEX_POINT('',#663);
#663 = CARTESIAN_POINT('',(2.,13.1,-40.1));
#664 = LINE('',#665,#666);
#665 = CARTESIAN_POINT('',(0.95,12.05,-40.1));
#666 = VECTOR('',#667,1.);
#667 = DIRECTION('',(0.707106781187,0.707106781187,1.6E-16));
#668 = ORIENTED_EDGE('',*,*,#669,.T.);
#669 = EDGE_CURVE('',#662,#670,#672,.T.);
#670 = VERTEX_POINT('',#671);
#671 = CARTESIAN_POINT('',(2.,14.,-40.1));
#672 = LINE('',#673,#674);
#673 = CARTESIAN_POINT('',(2.,12.,-40.1));
#674 = VECTOR('',#675,1.);
#675 = DIRECTION('',(-5.6E-16,1.,3.3E-16));
#676 = ORIENTED_EDGE('',*,*,#677,.F.);
#677 = EDGE_CURVE('',#238,#670,#678,.T.);
#678 = LINE('',#679,#680);
#679 = CARTESIAN_POINT('',(-2.869E-14,14.,-40.1));
#680 = VECTOR('',#681,1.);
#681 = DIRECTION('',(1.,5.6E-16,-2.2E-16));
#682 = ORIENTED_EDGE('',*,*,#245,.F.);
#683 = PLANE('',#684);
#684 = AXIS2_PLACEMENT_3D('',#685,#686,#687);
#685 = CARTESIAN_POINT('',(-2.713E-14,12.,-40.1));
#686 = DIRECTION('',(2.2E-16,-4.4E-16,1.));
#687 = DIRECTION('',(-7.8E-16,1.,4.4E-16));
#688 = ADVANCED_FACE('',(#689),#700,.F.);
#689 = FACE_BOUND('',#690,.F.);
#690 = EDGE_LOOP('',(#691,#692,#698,#699));
#691 = ORIENTED_EDGE('',*,*,#677,.T.);
#692 = ORIENTED_EDGE('',*,*,#693,.T.);
#693 = EDGE_CURVE('',#670,#607,#694,.T.);
#694 = LINE('',#695,#696);
#695 = CARTESIAN_POINT('',(2.,14.,-40.1));
#696 = VECTOR('',#697,1.);
#697 = DIRECTION('',(1.1E-16,-1.1E-16,1.));
#698 = ORIENTED_EDGE('',*,*,#606,.F.);
#699 = ORIENTED_EDGE('',*,*,#237,.F.);
#700 = PLANE('',#701);
#701 = AXIS2_PLACEMENT_3D('',#702,#703,#704);
#702 = CARTESIAN_POINT('',(-2.869E-14,14.,-40.1));
#703 = DIRECTION('',(5.6E-16,-1.,-3.3E-16));
#704 = DIRECTION('',(4.4E-16,-3.3E-16,1.));
#705 = ADVANCED_FACE('',(#706),#725,.F.);
#706 = FACE_BOUND('',#707,.F.);
#707 = EDGE_LOOP('',(#708,#716,#723,#724));
#708 = ORIENTED_EDGE('',*,*,#709,.F.);
#709 = EDGE_CURVE('',#710,#262,#712,.T.);
#710 = VERTEX_POINT('',#711);
#711 = CARTESIAN_POINT('',(-2.,-15.4,-8.));
#712 = LINE('',#713,#714);
#713 = CARTESIAN_POINT('',(-2.,-15.4,-8.));
#714 = VECTOR('',#715,1.);
#715 = DIRECTION('',(1.,5.6E-16,0.));
#716 = ORIENTED_EDGE('',*,*,#717,.F.);
#717 = EDGE_CURVE('',#710,#710,#718,.T.);
#718 = CIRCLE('',#719,2.1);
#719 = AXIS2_PLACEMENT_3D('',#720,#721,#722);
#720 = CARTESIAN_POINT('',(-2.,-17.5,-8.));
#721 = DIRECTION('',(-1.,-2.2E-16,4.4E-16));
#722 = DIRECTION('',(-2.2E-16,1.,4.4E-16));
#723 = ORIENTED_EDGE('',*,*,#709,.T.);
#724 = ORIENTED_EDGE('',*,*,#261,.T.);
#725 = CYLINDRICAL_SURFACE('',#726,2.1);
#726 = AXIS2_PLACEMENT_3D('',#727,#728,#729);
#727 = CARTESIAN_POINT('',(-2.,-17.5,-8.));
#728 = DIRECTION('',(-1.,-6.7E-16,1.1E-16));
#729 = DIRECTION('',(-6.7E-16,1.,5.6E-16));
#730 = ADVANCED_FACE('',(#731),#750,.F.);
#731 = FACE_BOUND('',#732,.F.);
#732 = EDGE_LOOP('',(#733,#741,#748,#749));
#733 = ORIENTED_EDGE('',*,*,#734,.F.);
#734 = EDGE_CURVE('',#735,#273,#737,.T.);
#735 = VERTEX_POINT('',#736);
#736 = CARTESIAN_POINT('',(-2.,19.6,-8.));
#737 = LINE('',#738,#739);
#738 = CARTESIAN_POINT('',(-2.,19.6,-8.));
#739 = VECTOR('',#740,1.);
#740 = DIRECTION('',(1.,5.6E-16,0.));
#741 = ORIENTED_EDGE('',*,*,#742,.F.);
#742 = EDGE_CURVE('',#735,#735,#743,.T.);
#743 = CIRCLE('',#744,2.1);
#744 = AXIS2_PLACEMENT_3D('',#745,#746,#747);
#745 = CARTESIAN_POINT('',(-2.,17.5,-8.));
#746 = DIRECTION('',(-1.,-2.2E-16,4.4E-16));
#747 = DIRECTION('',(-2.2E-16,1.,4.4E-16));
#748 = ORIENTED_EDGE('',*,*,#734,.T.);
#749 = ORIENTED_EDGE('',*,*,#272,.T.);
#750 = CYLINDRICAL_SURFACE('',#751,2.1);
#751 = AXIS2_PLACEMENT_3D('',#752,#753,#754);
#752 = CARTESIAN_POINT('',(-2.,17.5,-8.));
#753 = DIRECTION('',(-1.,-6.7E-16,1.1E-16));
#754 = DIRECTION('',(-6.7E-16,1.,5.6E-16));
#755 = ADVANCED_FACE('',(#756),#775,.F.);
#756 = FACE_BOUND('',#757,.F.);
#757 = EDGE_LOOP('',(#758,#766,#773,#774));
#758 = ORIENTED_EDGE('',*,*,#759,.F.);
#759 = EDGE_CURVE('',#760,#284,#762,.T.);
#760 = VERTEX_POINT('',#761);
#761 = CARTESIAN_POINT('',(-2.,4.5,5.E-15));
#762 = LINE('',#763,#764);
#763 = CARTESIAN_POINT('',(-2.,4.5,1.65E-15));
#764 = VECTOR('',#765,1.);
#765 = DIRECTION('',(1.,5.6E-16,0.));
#766 = ORIENTED_EDGE('',*,*,#767,.F.);
#767 = EDGE_CURVE('',#760,#760,#768,.T.);
#768 = CIRCLE('',#769,4.5);
#769 = AXIS2_PLACEMENT_3D('',#770,#771,#772);
#770 = CARTESIAN_POINT('',(-2.,3.6E-16,-2.6645352591E-15));
#771 = DIRECTION('',(-1.,-2.2E-16,4.4E-16));
#772 = DIRECTION('',(-2.2E-16,1.,4.4E-16));
#773 = ORIENTED_EDGE('',*,*,#759,.T.);
#774 = ORIENTED_EDGE('',*,*,#283,.T.);
#775 = CYLINDRICAL_SURFACE('',#776,4.5);
#776 = AXIS2_PLACEMENT_3D('',#777,#778,#779);
#777 = CARTESIAN_POINT('',(-2.,-1.15E-15,-8.4E-16));
#778 = DIRECTION('',(-1.,-6.7E-16,1.1E-16));
#779 = DIRECTION('',(-6.7E-16,1.,5.6E-16));
#780 = ADVANCED_FACE('',(#781,#793,#796,#799),#802,.F.);
#781 = FACE_BOUND('',#782,.F.);
#782 = EDGE_LOOP('',(#783,#784,#785,#786,#787,#788,#789,#790,#791,#792)
  );
#783 = ORIENTED_EDGE('',*,*,#362,.T.);
#784 = ORIENTED_EDGE('',*,*,#418,.F.);
#785 = ORIENTED_EDGE('',*,*,#460,.T.);
#786 = ORIENTED_EDGE('',*,*,#516,.F.);
#787 = ORIENTED_EDGE('',*,*,#557,.T.);
#788 = ORIENTED_EDGE('',*,*,#581,.T.);
#789 = ORIENTED_EDGE('',*,*,#540,.T.);
#790 = ORIENTED_EDGE('',*,*,#485,.F.);
#791 = ORIENTED_EDGE('',*,*,#442,.T.);
#792 = ORIENTED_EDGE('',*,*,#387,.F.);
#793 = FACE_BOUND('',#794,.F.);
#794 = EDGE_LOOP('',(#795));
#795 = ORIENTED_EDGE('',*,*,#717,.T.);
#796 = FACE_BOUND('',#797,.F.);
#797 = EDGE_LOOP('',(#798));
#798 = ORIENTED_EDGE('',*,*,#742,.T.);
#799 = FACE_BOUND('',#800,.F.);
#800 = EDGE_LOOP('',(#801));
#801 = ORIENTED_EDGE('',*,*,#767,.T.);
#802 = PLANE('',#803);
#803 = AXIS2_PLACEMENT_3D('',#804,#805,#806);
#804 = CARTESIAN_POINT('',(-2.,8.4E-16,-19.60019068712));
#805 = DIRECTION('',(1.,1.67E-15,5.6E-16));
#806 = DIRECTION('',(-1.67E-15,1.,5.6E-16));
#807 = ADVANCED_FACE('',(#808),#819,.F.);
#808 = FACE_BOUND('',#809,.T.);
#809 = EDGE_LOOP('',(#810,#811,#812,#813));
#810 = ORIENTED_EDGE('',*,*,#622,.F.);
#811 = ORIENTED_EDGE('',*,*,#637,.T.);
#812 = ORIENTED_EDGE('',*,*,#661,.T.);
#813 = ORIENTED_EDGE('',*,*,#814,.F.);
#814 = EDGE_CURVE('',#615,#662,#815,.T.);
#815 = LINE('',#816,#817);
#816 = CARTESIAN_POINT('',(2.,13.1,-27.1));
#817 = VECTOR('',#818,1.);
#818 = DIRECTION('',(-4.4E-16,3.3E-16,-1.));
#819 = PLANE('',#820);
#820 = AXIS2_PLACEMENT_3D('',#821,#822,#823);
#821 = CARTESIAN_POINT('',(1.45,12.55,-27.1));
#822 = DIRECTION('',(-0.707106781187,0.707106781187,2.3E-16));
#823 = DIRECTION('',(2.176345596729E-16,-1.076345596729E-16,1.));
#824 = ADVANCED_FACE('',(#825),#831,.T.);
#825 = FACE_BOUND('',#826,.T.);
#826 = EDGE_LOOP('',(#827,#828,#829,#830));
#827 = ORIENTED_EDGE('',*,*,#614,.T.);
#828 = ORIENTED_EDGE('',*,*,#814,.T.);
#829 = ORIENTED_EDGE('',*,*,#669,.T.);
#830 = ORIENTED_EDGE('',*,*,#693,.T.);
#831 = PLANE('',#832);
#832 = AXIS2_PLACEMENT_3D('',#833,#834,#835);
#833 = CARTESIAN_POINT('',(2.,1.43E-14,-33.6));
#834 = DIRECTION('',(1.,1.E-15,-1.1E-16));
#835 = DIRECTION('',(-1.E-15,1.,3.3E-16));
#836 = ( GEOMETRIC_REPRESENTATION_CONTEXT(3) 
GLOBAL_UNCERTAINTY_ASSIGNED_CONTEXT((#840)) GLOBAL_UNIT_ASSIGNED_CONTEXT
((#837,#838,#839)) REPRESENTATION_CONTEXT('Context #1',
  '3D Context with UNIT and UNCERTAINTY') );
#837 = ( LENGTH_UNIT() NAMED_UNIT(*) SI_UNIT(.MILLI.,.METRE.) );
#838 = ( NAMED_UNIT(*) PLANE_ANGLE_UNIT() SI_UNIT($,.RADIAN.) );
#839 = ( NAMED_UNIT(*) SI_UNIT($,.STERADIAN.) SOLID_ANGLE_UNIT() );
#840 = UNCERTAINTY_MEASURE_WITH_UNIT(LENGTH_MEASURE(1.E-07),#837,
  'distance_accuracy_value','confusion accuracy');
#841 = PRODUCT_RELATED_PRODUCT_CATEGORY('part',$,(#7));
#842 = MECHANICAL_DESIGN_GEOMETRIC_PRESENTATION_REPRESENTATION('',(#843)
  ,#836);
#843 = STYLED_ITEM('color',(#844),#15);
#844 = PRESENTATION_STYLE_ASSIGNMENT((#845,#851));
#845 = SURFACE_STYLE_USAGE(.BOTH.,#846);
#846 = SURFACE_SIDE_STYLE('',(#847));
#847 = SURFACE_STYLE_FILL_AREA(#848);
#848 = FILL_AREA_STYLE('',(#849));
#849 = FILL_AREA_STYLE_COLOUR('',#850);
#850 = COLOUR_RGB('',0.447058818107,0.474509808674,0.501960817233);
#851 = CURVE_STYLE('',#852,POSITIVE_LENGTH_MEASURE(0.1),#853);
#852 = DRAUGHTING_PRE_DEFINED_CURVE_FONT('continuous');
#853 = COLOUR_RGB('',9.803921802644E-02,9.803921802644E-02,
  9.803921802644E-02);
ENDSEC;
END-ISO-10303-21;
