ISO-10303-21;
HEADER;
FILE_DESCRIPTION(('FreeCAD Model'),'2;1');
FILE_NAME('Open CASCADE Shape Model','2024-11-08T15:58:28',(''),(''),
  'Open CASCADE STEP processor 7.7','FreeCAD','Unknown');
FILE_SCHEMA(('AUTOMOTIVE_DESIGN { 1 0 10303 214 1 1 1 1 }'));
ENDSEC;
DATA;
#1 = APPLICATION_PROTOCOL_DEFINITION('international standard',
  'automotive_design',2000,#2);
#2 = APPLICATION_CONTEXT(
  'core data for automotive mechanical design processes');
#3 = SHAPE_DEFINITION_REPRESENTATION(#4,#10);
#4 = PRODUCT_DEFINITION_SHAPE('','',#5);
#5 = PRODUCT_DEFINITION('design','',#6,#9);
#6 = PRODUCT_DEFINITION_FORMATION('','',#7);
#7 = PRODUCT('CubeConnector','CubeConnector','',(#8));
#8 = PRODUCT_CONTEXT('',#2,'mechanical');
#9 = PRODUCT_DEFINITION_CONTEXT('part definition',#2,'design');
#10 = SHAPE_REPRESENTATION('',(#11,#15),#19);
#11 = AXIS2_PLACEMENT_3D('',#12,#13,#14);
#12 = CARTESIAN_POINT('',(0.,0.,0.));
#13 = DIRECTION('',(0.,0.,1.));
#14 = DIRECTION('',(1.,0.,-0.));
#15 = AXIS2_PLACEMENT_3D('',#16,#17,#18);
#16 = CARTESIAN_POINT('',(0.,0.,0.));
#17 = DIRECTION('',(0.,0.,1.));
#18 = DIRECTION('',(1.,0.,0.));
#19 = ( GEOMETRIC_REPRESENTATION_CONTEXT(3) 
GLOBAL_UNCERTAINTY_ASSIGNED_CONTEXT((#23)) GLOBAL_UNIT_ASSIGNED_CONTEXT(
(#20,#21,#22)) REPRESENTATION_CONTEXT('Context #1',
  '3D Context with UNIT and UNCERTAINTY') );
#20 = ( LENGTH_UNIT() NAMED_UNIT(*) SI_UNIT(.MILLI.,.METRE.) );
#21 = ( NAMED_UNIT(*) PLANE_ANGLE_UNIT() SI_UNIT($,.RADIAN.) );
#22 = ( NAMED_UNIT(*) SI_UNIT($,.STERADIAN.) SOLID_ANGLE_UNIT() );
#23 = UNCERTAINTY_MEASURE_WITH_UNIT(LENGTH_MEASURE(1.E-07),#20,
  'distance_accuracy_value','confusion accuracy');
#24 = PRODUCT_RELATED_PRODUCT_CATEGORY('part',$,(#7));
#25 = SHAPE_DEFINITION_REPRESENTATION(#26,#32);
#26 = PRODUCT_DEFINITION_SHAPE('','',#27);
#27 = PRODUCT_DEFINITION('design','',#28,#31);
#28 = PRODUCT_DEFINITION_FORMATION('','',#29);
#29 = PRODUCT('cubeConnector','cubeConnector','',(#30));
#30 = PRODUCT_CONTEXT('',#2,'mechanical');
#31 = PRODUCT_DEFINITION_CONTEXT('part definition',#2,'design');
#32 = ADVANCED_BREP_SHAPE_REPRESENTATION('',(#11,#33),#1172);
#33 = MANIFOLD_SOLID_BREP('',#34);
#34 = CLOSED_SHELL('',(#35,#181,#212,#237,#262,#286,#310,#335,#360,#377,
    #424,#456,#488,#535,#582,#614,#646,#693,#720,#744,#768,#792,#816,
    #855,#879,#897,#921,#939,#957,#981,#999,#1023,#1047,#1065,#1089,
    #1107,#1124,#1136,#1148,#1160));
#35 = ADVANCED_FACE('',(#36,#106),#176,.F.);
#36 = FACE_BOUND('',#37,.F.);
#37 = EDGE_LOOP('',(#38,#48,#57,#65,#74,#82,#91,#99));
#38 = ORIENTED_EDGE('',*,*,#39,.F.);
#39 = EDGE_CURVE('',#40,#42,#44,.T.);
#40 = VERTEX_POINT('',#41);
#41 = CARTESIAN_POINT('',(-0.,-3.5,-5.5));
#42 = VERTEX_POINT('',#43);
#43 = CARTESIAN_POINT('',(0.,3.5,-5.5));
#44 = LINE('',#45,#46);
#45 = CARTESIAN_POINT('',(-1.22E-15,-5.5,-5.5));
#46 = VECTOR('',#47,1.);
#47 = DIRECTION('',(1.1E-16,1.,1.1E-16));
#48 = ORIENTED_EDGE('',*,*,#49,.T.);
#49 = EDGE_CURVE('',#40,#50,#52,.T.);
#50 = VERTEX_POINT('',#51);
#51 = CARTESIAN_POINT('',(-1.E-15,-5.5,-3.5));
#52 = CIRCLE('',#53,2.);
#53 = AXIS2_PLACEMENT_3D('',#54,#55,#56);
#54 = CARTESIAN_POINT('',(1.17E-15,-3.5,-3.5));
#55 = DIRECTION('',(-1.,-0.,-1.1E-16));
#56 = DIRECTION('',(1.1E-16,0.,-1.));
#57 = ORIENTED_EDGE('',*,*,#58,.F.);
#58 = EDGE_CURVE('',#59,#50,#61,.T.);
#59 = VERTEX_POINT('',#60);
#60 = CARTESIAN_POINT('',(-1.E-15,-5.5,3.5));
#61 = LINE('',#62,#63);
#62 = CARTESIAN_POINT('',(0.,-5.5,5.5));
#63 = VECTOR('',#64,1.);
#64 = DIRECTION('',(-1.1E-16,-1.1E-16,-1.));
#65 = ORIENTED_EDGE('',*,*,#66,.F.);
#66 = EDGE_CURVE('',#67,#59,#69,.T.);
#67 = VERTEX_POINT('',#68);
#68 = CARTESIAN_POINT('',(0.,-3.5,5.5));
#69 = CIRCLE('',#70,2.);
#70 = AXIS2_PLACEMENT_3D('',#71,#72,#73);
#71 = CARTESIAN_POINT('',(-1.17E-15,-3.5,3.5));
#72 = DIRECTION('',(1.,-0.,1.1E-16));
#73 = DIRECTION('',(1.1E-16,0.,-1.));
#74 = ORIENTED_EDGE('',*,*,#75,.F.);
#75 = EDGE_CURVE('',#76,#67,#78,.T.);
#76 = VERTEX_POINT('',#77);
#77 = CARTESIAN_POINT('',(0.,3.5,5.5));
#78 = LINE('',#79,#80);
#79 = CARTESIAN_POINT('',(1.22E-15,5.5,5.5));
#80 = VECTOR('',#81,1.);
#81 = DIRECTION('',(-1.1E-16,-1.,-1.1E-16));
#82 = ORIENTED_EDGE('',*,*,#83,.F.);
#83 = EDGE_CURVE('',#84,#76,#86,.T.);
#84 = VERTEX_POINT('',#85);
#85 = CARTESIAN_POINT('',(1.E-15,5.5,3.5));
#86 = CIRCLE('',#87,2.);
#87 = AXIS2_PLACEMENT_3D('',#88,#89,#90);
#88 = CARTESIAN_POINT('',(-1.17E-15,3.5,3.5));
#89 = DIRECTION('',(1.,-0.,1.1E-16));
#90 = DIRECTION('',(1.1E-16,0.,-1.));
#91 = ORIENTED_EDGE('',*,*,#92,.F.);
#92 = EDGE_CURVE('',#93,#84,#95,.T.);
#93 = VERTEX_POINT('',#94);
#94 = CARTESIAN_POINT('',(1.E-15,5.5,-3.5));
#95 = LINE('',#96,#97);
#96 = CARTESIAN_POINT('',(0.,5.5,-5.5));
#97 = VECTOR('',#98,1.);
#98 = DIRECTION('',(1.1E-16,1.1E-16,1.));
#99 = ORIENTED_EDGE('',*,*,#100,.F.);
#100 = EDGE_CURVE('',#42,#93,#101,.T.);
#101 = CIRCLE('',#102,2.);
#102 = AXIS2_PLACEMENT_3D('',#103,#104,#105);
#103 = CARTESIAN_POINT('',(1.17E-15,3.5,-3.5));
#104 = DIRECTION('',(1.,-0.,1.1E-16));
#105 = DIRECTION('',(1.1E-16,0.,-1.));
#106 = FACE_BOUND('',#107,.F.);
#107 = EDGE_LOOP('',(#108,#118,#127,#135,#144,#152,#161,#169));
#108 = ORIENTED_EDGE('',*,*,#109,.F.);
#109 = EDGE_CURVE('',#110,#112,#114,.T.);
#110 = VERTEX_POINT('',#111);
#111 = CARTESIAN_POINT('',(1.E-15,4.8,-9.4));
#112 = VERTEX_POINT('',#113);
#113 = CARTESIAN_POINT('',(-1.E-15,-4.8,-9.4));
#114 = LINE('',#115,#116);
#115 = CARTESIAN_POINT('',(-7.7E-16,7.1,-9.4));
#116 = VECTOR('',#117,1.);
#117 = DIRECTION('',(-3.3E-16,-1.,-3.3E-16));
#118 = ORIENTED_EDGE('',*,*,#119,.F.);
#119 = EDGE_CURVE('',#120,#110,#122,.T.);
#120 = VERTEX_POINT('',#121);
#121 = CARTESIAN_POINT('',(2.E-15,9.4,-4.8));
#122 = CIRCLE('',#123,4.6);
#123 = AXIS2_PLACEMENT_3D('',#124,#125,#126);
#124 = CARTESIAN_POINT('',(0.,4.8,-4.8));
#125 = DIRECTION('',(-1.,2.2E-16,2.2E-16));
#126 = DIRECTION('',(2.2E-16,1.,2.2E-16));
#127 = ORIENTED_EDGE('',*,*,#128,.F.);
#128 = EDGE_CURVE('',#129,#120,#131,.T.);
#129 = VERTEX_POINT('',#130);
#130 = CARTESIAN_POINT('',(2.E-15,9.4,4.8));
#131 = LINE('',#132,#133);
#132 = CARTESIAN_POINT('',(5.5E-15,9.4,7.1));
#133 = VECTOR('',#134,1.);
#134 = DIRECTION('',(-3.3E-16,-3.3E-16,-1.));
#135 = ORIENTED_EDGE('',*,*,#136,.F.);
#136 = EDGE_CURVE('',#137,#129,#139,.T.);
#137 = VERTEX_POINT('',#138);
#138 = CARTESIAN_POINT('',(1.E-15,4.8,9.4));
#139 = CIRCLE('',#140,4.6);
#140 = AXIS2_PLACEMENT_3D('',#141,#142,#143);
#141 = CARTESIAN_POINT('',(2.13E-15,4.8,4.8));
#142 = DIRECTION('',(-1.,2.2E-16,2.2E-16));
#143 = DIRECTION('',(2.2E-16,1.,2.2E-16));
#144 = ORIENTED_EDGE('',*,*,#145,.F.);
#145 = EDGE_CURVE('',#146,#137,#148,.T.);
#146 = VERTEX_POINT('',#147);
#147 = CARTESIAN_POINT('',(-1.E-15,-4.8,9.4));
#148 = LINE('',#149,#150);
#149 = CARTESIAN_POINT('',(7.7E-16,-7.1,9.4));
#150 = VECTOR('',#151,1.);
#151 = DIRECTION('',(3.3E-16,1.,3.3E-16));
#152 = ORIENTED_EDGE('',*,*,#153,.F.);
#153 = EDGE_CURVE('',#154,#146,#156,.T.);
#154 = VERTEX_POINT('',#155);
#155 = CARTESIAN_POINT('',(-2.E-15,-9.4,4.8));
#156 = CIRCLE('',#157,4.6);
#157 = AXIS2_PLACEMENT_3D('',#158,#159,#160);
#158 = CARTESIAN_POINT('',(0.,-4.8,4.8));
#159 = DIRECTION('',(-1.,2.2E-16,2.2E-16));
#160 = DIRECTION('',(2.2E-16,1.,2.2E-16));
#161 = ORIENTED_EDGE('',*,*,#162,.F.);
#162 = EDGE_CURVE('',#163,#154,#165,.T.);
#163 = VERTEX_POINT('',#164);
#164 = CARTESIAN_POINT('',(-2.E-15,-9.4,-4.8));
#165 = LINE('',#166,#167);
#166 = CARTESIAN_POINT('',(-5.5E-15,-9.4,-7.1));
#167 = VECTOR('',#168,1.);
#168 = DIRECTION('',(3.3E-16,3.3E-16,1.));
#169 = ORIENTED_EDGE('',*,*,#170,.F.);
#170 = EDGE_CURVE('',#112,#163,#171,.T.);
#171 = CIRCLE('',#172,4.6);
#172 = AXIS2_PLACEMENT_3D('',#173,#174,#175);
#173 = CARTESIAN_POINT('',(-2.13E-15,-4.8,-4.8));
#174 = DIRECTION('',(-1.,2.2E-16,2.2E-16));
#175 = DIRECTION('',(2.2E-16,1.,2.2E-16));
#176 = PLANE('',#177);
#177 = AXIS2_PLACEMENT_3D('',#178,#179,#180);
#178 = CARTESIAN_POINT('',(0.,2.E-17,1.2E-16));
#179 = DIRECTION('',(1.,3.3E-16,3.3E-16));
#180 = DIRECTION('',(-3.3E-16,3.3E-16,1.));
#181 = ADVANCED_FACE('',(#182),#207,.T.);
#182 = FACE_BOUND('',#183,.T.);
#183 = EDGE_LOOP('',(#184,#185,#193,#201));
#184 = ORIENTED_EDGE('',*,*,#39,.F.);
#185 = ORIENTED_EDGE('',*,*,#186,.T.);
#186 = EDGE_CURVE('',#40,#187,#189,.T.);
#187 = VERTEX_POINT('',#188);
#188 = CARTESIAN_POINT('',(2.,-3.5,-5.5));
#189 = LINE('',#190,#191);
#190 = CARTESIAN_POINT('',(-6.1E-16,-3.5,-5.5));
#191 = VECTOR('',#192,1.);
#192 = DIRECTION('',(1.,0.,1.1E-16));
#193 = ORIENTED_EDGE('',*,*,#194,.T.);
#194 = EDGE_CURVE('',#187,#195,#197,.T.);
#195 = VERTEX_POINT('',#196);
#196 = CARTESIAN_POINT('',(2.,3.5,-5.5));
#197 = LINE('',#198,#199);
#198 = CARTESIAN_POINT('',(2.,-5.5,-5.5));
#199 = VECTOR('',#200,1.);
#200 = DIRECTION('',(1.1E-16,1.,1.1E-16));
#201 = ORIENTED_EDGE('',*,*,#202,.F.);
#202 = EDGE_CURVE('',#42,#195,#203,.T.);
#203 = LINE('',#204,#205);
#204 = CARTESIAN_POINT('',(6.1E-16,3.5,-5.5));
#205 = VECTOR('',#206,1.);
#206 = DIRECTION('',(1.,0.,1.1E-16));
#207 = PLANE('',#208);
#208 = AXIS2_PLACEMENT_3D('',#209,#210,#211);
#209 = CARTESIAN_POINT('',(-6.1E-16,-5.5,-5.5));
#210 = DIRECTION('',(-1.1E-16,0.,1.));
#211 = DIRECTION('',(1.1E-16,1.,1.21E-32));
#212 = ADVANCED_FACE('',(#213),#232,.F.);
#213 = FACE_BOUND('',#214,.T.);
#214 = EDGE_LOOP('',(#215,#216,#224,#231));
#215 = ORIENTED_EDGE('',*,*,#49,.T.);
#216 = ORIENTED_EDGE('',*,*,#217,.T.);
#217 = EDGE_CURVE('',#50,#218,#220,.T.);
#218 = VERTEX_POINT('',#219);
#219 = CARTESIAN_POINT('',(2.,-5.5,-3.5));
#220 = LINE('',#221,#222);
#221 = CARTESIAN_POINT('',(-8.3E-16,-5.5,-3.5));
#222 = VECTOR('',#223,1.);
#223 = DIRECTION('',(1.,0.,1.1E-16));
#224 = ORIENTED_EDGE('',*,*,#225,.F.);
#225 = EDGE_CURVE('',#187,#218,#226,.T.);
#226 = CIRCLE('',#227,2.);
#227 = AXIS2_PLACEMENT_3D('',#228,#229,#230);
#228 = CARTESIAN_POINT('',(2.,-3.5,-3.5));
#229 = DIRECTION('',(-1.,-0.,-1.1E-16));
#230 = DIRECTION('',(1.1E-16,0.,-1.));
#231 = ORIENTED_EDGE('',*,*,#186,.F.);
#232 = CYLINDRICAL_SURFACE('',#233,2.);
#233 = AXIS2_PLACEMENT_3D('',#234,#235,#236);
#234 = CARTESIAN_POINT('',(-8.3E-16,-3.5,-3.5));
#235 = DIRECTION('',(1.,0.,1.1E-16));
#236 = DIRECTION('',(1.1E-16,0.,-1.));
#237 = ADVANCED_FACE('',(#238),#257,.F.);
#238 = FACE_BOUND('',#239,.F.);
#239 = EDGE_LOOP('',(#240,#241,#249,#256));
#240 = ORIENTED_EDGE('',*,*,#100,.T.);
#241 = ORIENTED_EDGE('',*,*,#242,.T.);
#242 = EDGE_CURVE('',#93,#243,#245,.T.);
#243 = VERTEX_POINT('',#244);
#244 = CARTESIAN_POINT('',(2.,5.5,-3.5));
#245 = LINE('',#246,#247);
#246 = CARTESIAN_POINT('',(3.9E-16,5.5,-3.5));
#247 = VECTOR('',#248,1.);
#248 = DIRECTION('',(1.,0.,1.1E-16));
#249 = ORIENTED_EDGE('',*,*,#250,.F.);
#250 = EDGE_CURVE('',#195,#243,#251,.T.);
#251 = CIRCLE('',#252,2.);
#252 = AXIS2_PLACEMENT_3D('',#253,#254,#255);
#253 = CARTESIAN_POINT('',(2.,3.5,-3.5));
#254 = DIRECTION('',(1.,-0.,1.1E-16));
#255 = DIRECTION('',(1.1E-16,0.,-1.));
#256 = ORIENTED_EDGE('',*,*,#202,.F.);
#257 = CYLINDRICAL_SURFACE('',#258,2.);
#258 = AXIS2_PLACEMENT_3D('',#259,#260,#261);
#259 = CARTESIAN_POINT('',(3.9E-16,3.5,-3.5));
#260 = DIRECTION('',(1.,0.,1.1E-16));
#261 = DIRECTION('',(1.1E-16,0.,-1.));
#262 = ADVANCED_FACE('',(#263),#281,.T.);
#263 = FACE_BOUND('',#264,.T.);
#264 = EDGE_LOOP('',(#265,#266,#274,#280));
#265 = ORIENTED_EDGE('',*,*,#58,.F.);
#266 = ORIENTED_EDGE('',*,*,#267,.T.);
#267 = EDGE_CURVE('',#59,#268,#270,.T.);
#268 = VERTEX_POINT('',#269);
#269 = CARTESIAN_POINT('',(2.,-5.5,3.5));
#270 = LINE('',#271,#272);
#271 = CARTESIAN_POINT('',(-3.9E-16,-5.5,3.5));
#272 = VECTOR('',#273,1.);
#273 = DIRECTION('',(1.,0.,1.1E-16));
#274 = ORIENTED_EDGE('',*,*,#275,.T.);
#275 = EDGE_CURVE('',#268,#218,#276,.T.);
#276 = LINE('',#277,#278);
#277 = CARTESIAN_POINT('',(2.,-5.5,5.5));
#278 = VECTOR('',#279,1.);
#279 = DIRECTION('',(-1.1E-16,-1.1E-16,-1.));
#280 = ORIENTED_EDGE('',*,*,#217,.F.);
#281 = PLANE('',#282);
#282 = AXIS2_PLACEMENT_3D('',#283,#284,#285);
#283 = CARTESIAN_POINT('',(-6.1E-16,-5.5,5.5));
#284 = DIRECTION('',(0.,1.,-1.1E-16));
#285 = DIRECTION('',(0.,-1.1E-16,-1.));
#286 = ADVANCED_FACE('',(#287),#305,.T.);
#287 = FACE_BOUND('',#288,.T.);
#288 = EDGE_LOOP('',(#289,#290,#291,#299));
#289 = ORIENTED_EDGE('',*,*,#92,.F.);
#290 = ORIENTED_EDGE('',*,*,#242,.T.);
#291 = ORIENTED_EDGE('',*,*,#292,.T.);
#292 = EDGE_CURVE('',#243,#293,#295,.T.);
#293 = VERTEX_POINT('',#294);
#294 = CARTESIAN_POINT('',(2.,5.5,3.5));
#295 = LINE('',#296,#297);
#296 = CARTESIAN_POINT('',(2.,5.5,-5.5));
#297 = VECTOR('',#298,1.);
#298 = DIRECTION('',(1.1E-16,1.1E-16,1.));
#299 = ORIENTED_EDGE('',*,*,#300,.F.);
#300 = EDGE_CURVE('',#84,#293,#301,.T.);
#301 = LINE('',#302,#303);
#302 = CARTESIAN_POINT('',(8.3E-16,5.5,3.5));
#303 = VECTOR('',#304,1.);
#304 = DIRECTION('',(1.,0.,1.1E-16));
#305 = PLANE('',#306);
#306 = AXIS2_PLACEMENT_3D('',#307,#308,#309);
#307 = CARTESIAN_POINT('',(6.1E-16,5.5,-5.5));
#308 = DIRECTION('',(0.,-1.,1.1E-16));
#309 = DIRECTION('',(0.,1.1E-16,1.));
#310 = ADVANCED_FACE('',(#311),#330,.F.);
#311 = FACE_BOUND('',#312,.F.);
#312 = EDGE_LOOP('',(#313,#314,#315,#324));
#313 = ORIENTED_EDGE('',*,*,#66,.T.);
#314 = ORIENTED_EDGE('',*,*,#267,.T.);
#315 = ORIENTED_EDGE('',*,*,#316,.F.);
#316 = EDGE_CURVE('',#317,#268,#319,.T.);
#317 = VERTEX_POINT('',#318);
#318 = CARTESIAN_POINT('',(2.,-3.5,5.5));
#319 = CIRCLE('',#320,2.);
#320 = AXIS2_PLACEMENT_3D('',#321,#322,#323);
#321 = CARTESIAN_POINT('',(2.,-3.5,3.5));
#322 = DIRECTION('',(1.,-0.,1.1E-16));
#323 = DIRECTION('',(1.1E-16,0.,-1.));
#324 = ORIENTED_EDGE('',*,*,#325,.F.);
#325 = EDGE_CURVE('',#67,#317,#326,.T.);
#326 = LINE('',#327,#328);
#327 = CARTESIAN_POINT('',(-6.1E-16,-3.5,5.5));
#328 = VECTOR('',#329,1.);
#329 = DIRECTION('',(1.,0.,1.1E-16));
#330 = CYLINDRICAL_SURFACE('',#331,2.);
#331 = AXIS2_PLACEMENT_3D('',#332,#333,#334);
#332 = CARTESIAN_POINT('',(-3.9E-16,-3.5,3.5));
#333 = DIRECTION('',(1.,0.,1.1E-16));
#334 = DIRECTION('',(-1.1E-16,0.,1.));
#335 = ADVANCED_FACE('',(#336),#355,.F.);
#336 = FACE_BOUND('',#337,.F.);
#337 = EDGE_LOOP('',(#338,#339,#347,#354));
#338 = ORIENTED_EDGE('',*,*,#83,.T.);
#339 = ORIENTED_EDGE('',*,*,#340,.T.);
#340 = EDGE_CURVE('',#76,#341,#343,.T.);
#341 = VERTEX_POINT('',#342);
#342 = CARTESIAN_POINT('',(2.,3.5,5.5));
#343 = LINE('',#344,#345);
#344 = CARTESIAN_POINT('',(6.1E-16,3.5,5.5));
#345 = VECTOR('',#346,1.);
#346 = DIRECTION('',(1.,0.,1.1E-16));
#347 = ORIENTED_EDGE('',*,*,#348,.F.);
#348 = EDGE_CURVE('',#293,#341,#349,.T.);
#349 = CIRCLE('',#350,2.);
#350 = AXIS2_PLACEMENT_3D('',#351,#352,#353);
#351 = CARTESIAN_POINT('',(2.,3.5,3.5));
#352 = DIRECTION('',(1.,-0.,1.1E-16));
#353 = DIRECTION('',(1.1E-16,0.,-1.));
#354 = ORIENTED_EDGE('',*,*,#300,.F.);
#355 = CYLINDRICAL_SURFACE('',#356,2.);
#356 = AXIS2_PLACEMENT_3D('',#357,#358,#359);
#357 = CARTESIAN_POINT('',(8.3E-16,3.5,3.5));
#358 = DIRECTION('',(1.,0.,1.1E-16));
#359 = DIRECTION('',(1.21E-32,1.,-1.1E-16));
#360 = ADVANCED_FACE('',(#361),#372,.T.);
#361 = FACE_BOUND('',#362,.T.);
#362 = EDGE_LOOP('',(#363,#364,#365,#371));
#363 = ORIENTED_EDGE('',*,*,#75,.F.);
#364 = ORIENTED_EDGE('',*,*,#340,.T.);
#365 = ORIENTED_EDGE('',*,*,#366,.T.);
#366 = EDGE_CURVE('',#341,#317,#367,.T.);
#367 = LINE('',#368,#369);
#368 = CARTESIAN_POINT('',(2.,5.5,5.5));
#369 = VECTOR('',#370,1.);
#370 = DIRECTION('',(-1.1E-16,-1.,-1.1E-16));
#371 = ORIENTED_EDGE('',*,*,#325,.F.);
#372 = PLANE('',#373);
#373 = AXIS2_PLACEMENT_3D('',#374,#375,#376);
#374 = CARTESIAN_POINT('',(6.1E-16,5.5,5.5));
#375 = DIRECTION('',(1.1E-16,0.,-1.));
#376 = DIRECTION('',(-1.1E-16,-1.,-1.21E-32));
#377 = ADVANCED_FACE('',(#378),#419,.T.);
#378 = FACE_BOUND('',#379,.T.);
#379 = EDGE_LOOP('',(#380,#390,#398,#406,#412,#413));
#380 = ORIENTED_EDGE('',*,*,#381,.T.);
#381 = EDGE_CURVE('',#382,#384,#386,.T.);
#382 = VERTEX_POINT('',#383);
#383 = CARTESIAN_POINT('',(2.E-15,7.1,-9.4));
#384 = VERTEX_POINT('',#385);
#385 = CARTESIAN_POINT('',(4.,7.1,-9.4));
#386 = LINE('',#387,#388);
#387 = CARTESIAN_POINT('',(2.8E-16,7.1,-9.4));
#388 = VECTOR('',#389,1.);
#389 = DIRECTION('',(1.,2.2E-16,3.3E-16));
#390 = ORIENTED_EDGE('',*,*,#391,.T.);
#391 = EDGE_CURVE('',#384,#392,#394,.T.);
#392 = VERTEX_POINT('',#393);
#393 = CARTESIAN_POINT('',(4.,-7.1,-9.4));
#394 = LINE('',#395,#396);
#395 = CARTESIAN_POINT('',(4.,7.1,-9.4));
#396 = VECTOR('',#397,1.);
#397 = DIRECTION('',(-3.3E-16,-1.,-3.3E-16));
#398 = ORIENTED_EDGE('',*,*,#399,.F.);
#399 = EDGE_CURVE('',#400,#392,#402,.T.);
#400 = VERTEX_POINT('',#401);
#401 = CARTESIAN_POINT('',(-2.E-15,-7.1,-9.4));
#402 = LINE('',#403,#404);
#403 = CARTESIAN_POINT('',(-4.45E-15,-7.1,-9.4));
#404 = VECTOR('',#405,1.);
#405 = DIRECTION('',(1.,2.2E-16,3.3E-16));
#406 = ORIENTED_EDGE('',*,*,#407,.F.);
#407 = EDGE_CURVE('',#112,#400,#408,.T.);
#408 = LINE('',#409,#410);
#409 = CARTESIAN_POINT('',(-7.7E-16,7.1,-9.4));
#410 = VECTOR('',#411,1.);
#411 = DIRECTION('',(-3.3E-16,-1.,-3.3E-16));
#412 = ORIENTED_EDGE('',*,*,#109,.F.);
#413 = ORIENTED_EDGE('',*,*,#414,.F.);
#414 = EDGE_CURVE('',#382,#110,#415,.T.);
#415 = LINE('',#416,#417);
#416 = CARTESIAN_POINT('',(-7.7E-16,7.1,-9.4));
#417 = VECTOR('',#418,1.);
#418 = DIRECTION('',(-3.3E-16,-1.,-3.3E-16));
#419 = PLANE('',#420);
#420 = AXIS2_PLACEMENT_3D('',#421,#422,#423);
#421 = CARTESIAN_POINT('',(2.8E-16,7.1,-9.4));
#422 = DIRECTION('',(-1.1E-16,-2.2E-16,-1.));
#423 = DIRECTION('',(-3.3E-16,-1.,2.2E-16));
#424 = ADVANCED_FACE('',(#425),#451,.F.);
#425 = FACE_BOUND('',#426,.T.);
#426 = EDGE_LOOP('',(#427,#435,#444,#450));
#427 = ORIENTED_EDGE('',*,*,#428,.T.);
#428 = EDGE_CURVE('',#120,#429,#431,.T.);
#429 = VERTEX_POINT('',#430);
#430 = CARTESIAN_POINT('',(-8.,9.4,-4.8));
#431 = LINE('',#432,#433);
#432 = CARTESIAN_POINT('',(1.55E-15,9.4,-4.8));
#433 = VECTOR('',#434,1.);
#434 = DIRECTION('',(-1.,-1.1E-16,-2.2E-16));
#435 = ORIENTED_EDGE('',*,*,#436,.T.);
#436 = EDGE_CURVE('',#429,#437,#439,.T.);
#437 = VERTEX_POINT('',#438);
#438 = CARTESIAN_POINT('',(-8.,4.8,-9.4));
#439 = CIRCLE('',#440,4.6);
#440 = AXIS2_PLACEMENT_3D('',#441,#442,#443);
#441 = CARTESIAN_POINT('',(-8.,4.8,-4.8));
#442 = DIRECTION('',(-1.,2.2E-16,2.2E-16));
#443 = DIRECTION('',(2.2E-16,1.,2.2E-16));
#444 = ORIENTED_EDGE('',*,*,#445,.F.);
#445 = EDGE_CURVE('',#110,#437,#446,.T.);
#446 = LINE('',#447,#448);
#447 = CARTESIAN_POINT('',(2.E-17,4.8,-9.4));
#448 = VECTOR('',#449,1.);
#449 = DIRECTION('',(-1.,-1.1E-16,-2.2E-16));
#450 = ORIENTED_EDGE('',*,*,#119,.F.);
#451 = CYLINDRICAL_SURFACE('',#452,4.6);
#452 = AXIS2_PLACEMENT_3D('',#453,#454,#455);
#453 = CARTESIAN_POINT('',(5.3E-16,4.8,-4.8));
#454 = DIRECTION('',(1.,0.,1.1E-16));
#455 = DIRECTION('',(-1.21E-32,1.,1.1E-16));
#456 = ADVANCED_FACE('',(#457),#483,.F.);
#457 = FACE_BOUND('',#458,.T.);
#458 = EDGE_LOOP('',(#459,#467,#476,#482));
#459 = ORIENTED_EDGE('',*,*,#460,.T.);
#460 = EDGE_CURVE('',#112,#461,#463,.T.);
#461 = VERTEX_POINT('',#462);
#462 = CARTESIAN_POINT('',(-8.,-4.8,-9.4));
#463 = LINE('',#464,#465);
#464 = CARTESIAN_POINT('',(-2.11E-15,-4.8,-9.4));
#465 = VECTOR('',#466,1.);
#466 = DIRECTION('',(-1.,-1.1E-16,-2.2E-16));
#467 = ORIENTED_EDGE('',*,*,#468,.T.);
#468 = EDGE_CURVE('',#461,#469,#471,.T.);
#469 = VERTEX_POINT('',#470);
#470 = CARTESIAN_POINT('',(-8.,-9.4,-4.8));
#471 = CIRCLE('',#472,4.6);
#472 = AXIS2_PLACEMENT_3D('',#473,#474,#475);
#473 = CARTESIAN_POINT('',(-8.,-4.8,-4.8));
#474 = DIRECTION('',(-1.,2.2E-16,2.2E-16));
#475 = DIRECTION('',(2.2E-16,1.,2.2E-16));
#476 = ORIENTED_EDGE('',*,*,#477,.F.);
#477 = EDGE_CURVE('',#163,#469,#478,.T.);
#478 = LINE('',#479,#480);
#479 = CARTESIAN_POINT('',(-2.62E-15,-9.4,-4.8));
#480 = VECTOR('',#481,1.);
#481 = DIRECTION('',(-1.,-1.1E-16,-2.2E-16));
#482 = ORIENTED_EDGE('',*,*,#170,.F.);
#483 = CYLINDRICAL_SURFACE('',#484,4.6);
#484 = AXIS2_PLACEMENT_3D('',#485,#486,#487);
#485 = CARTESIAN_POINT('',(-1.6E-15,-4.8,-4.8));
#486 = DIRECTION('',(1.,0.,1.1E-16));
#487 = DIRECTION('',(-1.21E-32,1.,1.1E-16));
#488 = ADVANCED_FACE('',(#489),#530,.T.);
#489 = FACE_BOUND('',#490,.T.);
#490 = EDGE_LOOP('',(#491,#501,#509,#517,#523,#524));
#491 = ORIENTED_EDGE('',*,*,#492,.T.);
#492 = EDGE_CURVE('',#493,#495,#497,.T.);
#493 = VERTEX_POINT('',#494);
#494 = CARTESIAN_POINT('',(2.E-15,9.4,7.1));
#495 = VERTEX_POINT('',#496);
#496 = CARTESIAN_POINT('',(4.,9.4,7.1));
#497 = LINE('',#498,#499);
#498 = CARTESIAN_POINT('',(4.71E-15,9.4,7.1));
#499 = VECTOR('',#500,1.);
#500 = DIRECTION('',(1.,2.2E-16,3.3E-16));
#501 = ORIENTED_EDGE('',*,*,#502,.T.);
#502 = EDGE_CURVE('',#495,#503,#505,.T.);
#503 = VERTEX_POINT('',#504);
#504 = CARTESIAN_POINT('',(4.,9.4,-7.1));
#505 = LINE('',#506,#507);
#506 = CARTESIAN_POINT('',(4.,9.4,7.1));
#507 = VECTOR('',#508,1.);
#508 = DIRECTION('',(-3.3E-16,-3.3E-16,-1.));
#509 = ORIENTED_EDGE('',*,*,#510,.F.);
#510 = EDGE_CURVE('',#511,#503,#513,.T.);
#511 = VERTEX_POINT('',#512);
#512 = CARTESIAN_POINT('',(3.E-15,9.4,-7.1));
#513 = LINE('',#514,#515);
#514 = CARTESIAN_POINT('',(1.55E-15,9.4,-7.1));
#515 = VECTOR('',#516,1.);
#516 = DIRECTION('',(1.,2.2E-16,3.3E-16));
#517 = ORIENTED_EDGE('',*,*,#518,.F.);
#518 = EDGE_CURVE('',#120,#511,#519,.T.);
#519 = LINE('',#520,#521);
#520 = CARTESIAN_POINT('',(5.5E-15,9.4,7.1));
#521 = VECTOR('',#522,1.);
#522 = DIRECTION('',(-3.3E-16,-3.3E-16,-1.));
#523 = ORIENTED_EDGE('',*,*,#128,.F.);
#524 = ORIENTED_EDGE('',*,*,#525,.F.);
#525 = EDGE_CURVE('',#493,#129,#526,.T.);
#526 = LINE('',#527,#528);
#527 = CARTESIAN_POINT('',(5.5E-15,9.4,7.1));
#528 = VECTOR('',#529,1.);
#529 = DIRECTION('',(-3.3E-16,-3.3E-16,-1.));
#530 = PLANE('',#531);
#531 = AXIS2_PLACEMENT_3D('',#532,#533,#534);
#532 = CARTESIAN_POINT('',(4.71E-15,9.4,7.1));
#533 = DIRECTION('',(2.2E-16,1.,1.1E-16));
#534 = DIRECTION('',(-2.2E-16,1.1E-16,-1.));
#535 = ADVANCED_FACE('',(#536),#577,.T.);
#536 = FACE_BOUND('',#537,.T.);
#537 = EDGE_LOOP('',(#538,#548,#556,#564,#570,#571));
#538 = ORIENTED_EDGE('',*,*,#539,.T.);
#539 = EDGE_CURVE('',#540,#542,#544,.T.);
#540 = VERTEX_POINT('',#541);
#541 = CARTESIAN_POINT('',(-2.E-15,-9.4,-7.1));
#542 = VERTEX_POINT('',#543);
#543 = CARTESIAN_POINT('',(4.,-9.4,-7.1));
#544 = LINE('',#545,#546);
#545 = CARTESIAN_POINT('',(-4.71E-15,-9.4,-7.1));
#546 = VECTOR('',#547,1.);
#547 = DIRECTION('',(1.,2.2E-16,3.3E-16));
#548 = ORIENTED_EDGE('',*,*,#549,.T.);
#549 = EDGE_CURVE('',#542,#550,#552,.T.);
#550 = VERTEX_POINT('',#551);
#551 = CARTESIAN_POINT('',(4.,-9.4,7.1));
#552 = LINE('',#553,#554);
#553 = CARTESIAN_POINT('',(4.,-9.4,-7.1));
#554 = VECTOR('',#555,1.);
#555 = DIRECTION('',(3.3E-16,3.3E-16,1.));
#556 = ORIENTED_EDGE('',*,*,#557,.F.);
#557 = EDGE_CURVE('',#558,#550,#560,.T.);
#558 = VERTEX_POINT('',#559);
#559 = CARTESIAN_POINT('',(-3.E-15,-9.4,7.1));
#560 = LINE('',#561,#562);
#561 = CARTESIAN_POINT('',(-1.55E-15,-9.4,7.1));
#562 = VECTOR('',#563,1.);
#563 = DIRECTION('',(1.,2.2E-16,3.3E-16));
#564 = ORIENTED_EDGE('',*,*,#565,.F.);
#565 = EDGE_CURVE('',#154,#558,#566,.T.);
#566 = LINE('',#567,#568);
#567 = CARTESIAN_POINT('',(-5.5E-15,-9.4,-7.1));
#568 = VECTOR('',#569,1.);
#569 = DIRECTION('',(3.3E-16,3.3E-16,1.));
#570 = ORIENTED_EDGE('',*,*,#162,.F.);
#571 = ORIENTED_EDGE('',*,*,#572,.F.);
#572 = EDGE_CURVE('',#540,#163,#573,.T.);
#573 = LINE('',#574,#575);
#574 = CARTESIAN_POINT('',(-5.5E-15,-9.4,-7.1));
#575 = VECTOR('',#576,1.);
#576 = DIRECTION('',(3.3E-16,3.3E-16,1.));
#577 = PLANE('',#578);
#578 = AXIS2_PLACEMENT_3D('',#579,#580,#581);
#579 = CARTESIAN_POINT('',(-4.71E-15,-9.4,-7.1));
#580 = DIRECTION('',(-2.2E-16,-1.,-1.1E-16));
#581 = DIRECTION('',(2.2E-16,-1.1E-16,1.));
#582 = ADVANCED_FACE('',(#583),#609,.F.);
#583 = FACE_BOUND('',#584,.T.);
#584 = EDGE_LOOP('',(#585,#593,#602,#608));
#585 = ORIENTED_EDGE('',*,*,#586,.T.);
#586 = EDGE_CURVE('',#137,#587,#589,.T.);
#587 = VERTEX_POINT('',#588);
#588 = CARTESIAN_POINT('',(-8.,4.8,9.4));
#589 = LINE('',#590,#591);
#590 = CARTESIAN_POINT('',(2.11E-15,4.8,9.4));
#591 = VECTOR('',#592,1.);
#592 = DIRECTION('',(-1.,-1.1E-16,-2.2E-16));
#593 = ORIENTED_EDGE('',*,*,#594,.T.);
#594 = EDGE_CURVE('',#587,#595,#597,.T.);
#595 = VERTEX_POINT('',#596);
#596 = CARTESIAN_POINT('',(-8.,9.4,4.8));
#597 = CIRCLE('',#598,4.6);
#598 = AXIS2_PLACEMENT_3D('',#599,#600,#601);
#599 = CARTESIAN_POINT('',(-8.,4.8,4.8));
#600 = DIRECTION('',(-1.,2.2E-16,2.2E-16));
#601 = DIRECTION('',(2.2E-16,1.,2.2E-16));
#602 = ORIENTED_EDGE('',*,*,#603,.F.);
#603 = EDGE_CURVE('',#129,#595,#604,.T.);
#604 = LINE('',#605,#606);
#605 = CARTESIAN_POINT('',(2.62E-15,9.4,4.8));
#606 = VECTOR('',#607,1.);
#607 = DIRECTION('',(-1.,-1.1E-16,-2.2E-16));
#608 = ORIENTED_EDGE('',*,*,#136,.F.);
#609 = CYLINDRICAL_SURFACE('',#610,4.6);
#610 = AXIS2_PLACEMENT_3D('',#611,#612,#613);
#611 = CARTESIAN_POINT('',(1.6E-15,4.8,4.8));
#612 = DIRECTION('',(1.,0.,1.1E-16));
#613 = DIRECTION('',(-1.21E-32,1.,1.1E-16));
#614 = ADVANCED_FACE('',(#615),#641,.F.);
#615 = FACE_BOUND('',#616,.T.);
#616 = EDGE_LOOP('',(#617,#625,#634,#640));
#617 = ORIENTED_EDGE('',*,*,#618,.T.);
#618 = EDGE_CURVE('',#154,#619,#621,.T.);
#619 = VERTEX_POINT('',#620);
#620 = CARTESIAN_POINT('',(-8.,-9.4,4.8));
#621 = LINE('',#622,#623);
#622 = CARTESIAN_POINT('',(-1.55E-15,-9.4,4.8));
#623 = VECTOR('',#624,1.);
#624 = DIRECTION('',(-1.,-1.1E-16,-2.2E-16));
#625 = ORIENTED_EDGE('',*,*,#626,.T.);
#626 = EDGE_CURVE('',#619,#627,#629,.T.);
#627 = VERTEX_POINT('',#628);
#628 = CARTESIAN_POINT('',(-8.,-4.8,9.4));
#629 = CIRCLE('',#630,4.6);
#630 = AXIS2_PLACEMENT_3D('',#631,#632,#633);
#631 = CARTESIAN_POINT('',(-8.,-4.8,4.8));
#632 = DIRECTION('',(-1.,2.2E-16,2.2E-16));
#633 = DIRECTION('',(2.2E-16,1.,2.2E-16));
#634 = ORIENTED_EDGE('',*,*,#635,.F.);
#635 = EDGE_CURVE('',#146,#627,#636,.T.);
#636 = LINE('',#637,#638);
#637 = CARTESIAN_POINT('',(-2.E-17,-4.8,9.4));
#638 = VECTOR('',#639,1.);
#639 = DIRECTION('',(-1.,-1.1E-16,-2.2E-16));
#640 = ORIENTED_EDGE('',*,*,#153,.F.);
#641 = CYLINDRICAL_SURFACE('',#642,4.6);
#642 = AXIS2_PLACEMENT_3D('',#643,#644,#645);
#643 = CARTESIAN_POINT('',(-5.3E-16,-4.8,4.8));
#644 = DIRECTION('',(1.,0.,1.1E-16));
#645 = DIRECTION('',(-1.21E-32,1.,1.1E-16));
#646 = ADVANCED_FACE('',(#647),#688,.T.);
#647 = FACE_BOUND('',#648,.T.);
#648 = EDGE_LOOP('',(#649,#659,#667,#675,#681,#682));
#649 = ORIENTED_EDGE('',*,*,#650,.T.);
#650 = EDGE_CURVE('',#651,#653,#655,.T.);
#651 = VERTEX_POINT('',#652);
#652 = CARTESIAN_POINT('',(-2.E-15,-7.1,9.4));
#653 = VERTEX_POINT('',#654);
#654 = CARTESIAN_POINT('',(4.,-7.1,9.4));
#655 = LINE('',#656,#657);
#656 = CARTESIAN_POINT('',(-2.8E-16,-7.1,9.4));
#657 = VECTOR('',#658,1.);
#658 = DIRECTION('',(1.,2.2E-16,3.3E-16));
#659 = ORIENTED_EDGE('',*,*,#660,.T.);
#660 = EDGE_CURVE('',#653,#661,#663,.T.);
#661 = VERTEX_POINT('',#662);
#662 = CARTESIAN_POINT('',(4.,7.1,9.4));
#663 = LINE('',#664,#665);
#664 = CARTESIAN_POINT('',(4.,-7.1,9.4));
#665 = VECTOR('',#666,1.);
#666 = DIRECTION('',(3.3E-16,1.,3.3E-16));
#667 = ORIENTED_EDGE('',*,*,#668,.F.);
#668 = EDGE_CURVE('',#669,#661,#671,.T.);
#669 = VERTEX_POINT('',#670);
#670 = CARTESIAN_POINT('',(2.E-15,7.1,9.4));
#671 = LINE('',#672,#673);
#672 = CARTESIAN_POINT('',(4.45E-15,7.1,9.4));
#673 = VECTOR('',#674,1.);
#674 = DIRECTION('',(1.,2.2E-16,3.3E-16));
#675 = ORIENTED_EDGE('',*,*,#676,.F.);
#676 = EDGE_CURVE('',#137,#669,#677,.T.);
#677 = LINE('',#678,#679);
#678 = CARTESIAN_POINT('',(7.7E-16,-7.1,9.4));
#679 = VECTOR('',#680,1.);
#680 = DIRECTION('',(3.3E-16,1.,3.3E-16));
#681 = ORIENTED_EDGE('',*,*,#145,.F.);
#682 = ORIENTED_EDGE('',*,*,#683,.F.);
#683 = EDGE_CURVE('',#651,#146,#684,.T.);
#684 = LINE('',#685,#686);
#685 = CARTESIAN_POINT('',(7.7E-16,-7.1,9.4));
#686 = VECTOR('',#687,1.);
#687 = DIRECTION('',(3.3E-16,1.,3.3E-16));
#688 = PLANE('',#689);
#689 = AXIS2_PLACEMENT_3D('',#690,#691,#692);
#690 = CARTESIAN_POINT('',(-2.8E-16,-7.1,9.4));
#691 = DIRECTION('',(1.1E-16,2.2E-16,1.));
#692 = DIRECTION('',(3.3E-16,1.,-2.2E-16));
#693 = ADVANCED_FACE('',(#694,#704),#715,.F.);
#694 = FACE_BOUND('',#695,.F.);
#695 = EDGE_LOOP('',(#696,#697,#698,#699,#700,#701,#702,#703));
#696 = ORIENTED_EDGE('',*,*,#194,.T.);
#697 = ORIENTED_EDGE('',*,*,#250,.T.);
#698 = ORIENTED_EDGE('',*,*,#292,.T.);
#699 = ORIENTED_EDGE('',*,*,#348,.T.);
#700 = ORIENTED_EDGE('',*,*,#366,.T.);
#701 = ORIENTED_EDGE('',*,*,#316,.T.);
#702 = ORIENTED_EDGE('',*,*,#275,.T.);
#703 = ORIENTED_EDGE('',*,*,#225,.F.);
#704 = FACE_BOUND('',#705,.F.);
#705 = EDGE_LOOP('',(#706));
#706 = ORIENTED_EDGE('',*,*,#707,.T.);
#707 = EDGE_CURVE('',#708,#708,#710,.T.);
#708 = VERTEX_POINT('',#709);
#709 = CARTESIAN_POINT('',(2.,3.55,1.E-15));
#710 = CIRCLE('',#711,3.55);
#711 = AXIS2_PLACEMENT_3D('',#712,#713,#714);
#712 = CARTESIAN_POINT('',(2.,-2.2E-16,4.4E-16));
#713 = DIRECTION('',(-1.,1.1E-16,-2.2E-16));
#714 = DIRECTION('',(1.1E-16,1.,0.));
#715 = PLANE('',#716);
#716 = AXIS2_PLACEMENT_3D('',#717,#718,#719);
#717 = CARTESIAN_POINT('',(2.,-1.6E-16,6.661338147751E-16));
#718 = DIRECTION('',(1.,1.1E-16,1.1E-16));
#719 = DIRECTION('',(-1.1E-16,1.1E-16,1.));
#720 = ADVANCED_FACE('',(#721),#739,.T.);
#721 = FACE_BOUND('',#722,.F.);
#722 = EDGE_LOOP('',(#723,#724,#731,#732));
#723 = ORIENTED_EDGE('',*,*,#381,.T.);
#724 = ORIENTED_EDGE('',*,*,#725,.T.);
#725 = EDGE_CURVE('',#384,#503,#726,.T.);
#726 = CIRCLE('',#727,2.3);
#727 = AXIS2_PLACEMENT_3D('',#728,#729,#730);
#728 = CARTESIAN_POINT('',(4.,9.4,-9.4));
#729 = DIRECTION('',(1.,-3.3E-16,-3.3E-16));
#730 = DIRECTION('',(3.3E-16,1.,3.3E-16));
#731 = ORIENTED_EDGE('',*,*,#510,.F.);
#732 = ORIENTED_EDGE('',*,*,#733,.F.);
#733 = EDGE_CURVE('',#382,#511,#734,.T.);
#734 = CIRCLE('',#735,2.3);
#735 = AXIS2_PLACEMENT_3D('',#736,#737,#738);
#736 = CARTESIAN_POINT('',(0.,9.4,-9.4));
#737 = DIRECTION('',(1.,-3.3E-16,-3.3E-16));
#738 = DIRECTION('',(3.3E-16,1.,3.3E-16));
#739 = CYLINDRICAL_SURFACE('',#740,2.3);
#740 = AXIS2_PLACEMENT_3D('',#741,#742,#743);
#741 = CARTESIAN_POINT('',(1.04E-15,9.4,-9.4));
#742 = DIRECTION('',(-1.,-1.1E-16,-2.2E-16));
#743 = DIRECTION('',(-1.1E-16,1.,2.2E-16));
#744 = ADVANCED_FACE('',(#745),#763,.T.);
#745 = FACE_BOUND('',#746,.F.);
#746 = EDGE_LOOP('',(#747,#748,#755,#756));
#747 = ORIENTED_EDGE('',*,*,#539,.T.);
#748 = ORIENTED_EDGE('',*,*,#749,.T.);
#749 = EDGE_CURVE('',#542,#392,#750,.T.);
#750 = CIRCLE('',#751,2.3);
#751 = AXIS2_PLACEMENT_3D('',#752,#753,#754);
#752 = CARTESIAN_POINT('',(4.,-9.4,-9.4));
#753 = DIRECTION('',(1.,-3.3E-16,-3.3E-16));
#754 = DIRECTION('',(3.3E-16,1.,3.3E-16));
#755 = ORIENTED_EDGE('',*,*,#399,.F.);
#756 = ORIENTED_EDGE('',*,*,#757,.F.);
#757 = EDGE_CURVE('',#540,#400,#758,.T.);
#758 = CIRCLE('',#759,2.3);
#759 = AXIS2_PLACEMENT_3D('',#760,#761,#762);
#760 = CARTESIAN_POINT('',(-6.26E-15,-9.4,-9.4));
#761 = DIRECTION('',(1.,-3.3E-16,-3.3E-16));
#762 = DIRECTION('',(3.3E-16,1.,3.3E-16));
#763 = CYLINDRICAL_SURFACE('',#764,2.3);
#764 = AXIS2_PLACEMENT_3D('',#765,#766,#767);
#765 = CARTESIAN_POINT('',(-5.22E-15,-9.4,-9.4));
#766 = DIRECTION('',(-1.,-1.1E-16,-2.2E-16));
#767 = DIRECTION('',(-1.1E-16,1.,2.2E-16));
#768 = ADVANCED_FACE('',(#769),#787,.T.);
#769 = FACE_BOUND('',#770,.T.);
#770 = EDGE_LOOP('',(#771,#772,#780,#786));
#771 = ORIENTED_EDGE('',*,*,#445,.T.);
#772 = ORIENTED_EDGE('',*,*,#773,.T.);
#773 = EDGE_CURVE('',#437,#774,#776,.T.);
#774 = VERTEX_POINT('',#775);
#775 = CARTESIAN_POINT('',(-8.,7.1,-9.4));
#776 = LINE('',#777,#778);
#777 = CARTESIAN_POINT('',(-8.,4.8,-9.4));
#778 = VECTOR('',#779,1.);
#779 = DIRECTION('',(2.2E-16,1.,2.2E-16));
#780 = ORIENTED_EDGE('',*,*,#781,.F.);
#781 = EDGE_CURVE('',#382,#774,#782,.T.);
#782 = LINE('',#783,#784);
#783 = CARTESIAN_POINT('',(5.3E-16,7.1,-9.4));
#784 = VECTOR('',#785,1.);
#785 = DIRECTION('',(-1.,-1.1E-16,-2.2E-16));
#786 = ORIENTED_EDGE('',*,*,#414,.T.);
#787 = PLANE('',#788);
#788 = AXIS2_PLACEMENT_3D('',#789,#790,#791);
#789 = CARTESIAN_POINT('',(2.E-17,4.8,-9.4));
#790 = DIRECTION('',(0.,-1.1E-16,-1.));
#791 = DIRECTION('',(2.2E-16,1.,-1.1E-16));
#792 = ADVANCED_FACE('',(#793),#811,.F.);
#793 = FACE_BOUND('',#794,.F.);
#794 = EDGE_LOOP('',(#795,#796,#804,#810));
#795 = ORIENTED_EDGE('',*,*,#460,.T.);
#796 = ORIENTED_EDGE('',*,*,#797,.T.);
#797 = EDGE_CURVE('',#461,#798,#800,.T.);
#798 = VERTEX_POINT('',#799);
#799 = CARTESIAN_POINT('',(-8.,-7.1,-9.4));
#800 = LINE('',#801,#802);
#801 = CARTESIAN_POINT('',(-8.,-4.8,-9.4));
#802 = VECTOR('',#803,1.);
#803 = DIRECTION('',(-2.2E-16,-1.,-2.2E-16));
#804 = ORIENTED_EDGE('',*,*,#805,.F.);
#805 = EDGE_CURVE('',#400,#798,#806,.T.);
#806 = LINE('',#807,#808);
#807 = CARTESIAN_POINT('',(-2.62E-15,-7.1,-9.4));
#808 = VECTOR('',#809,1.);
#809 = DIRECTION('',(-1.,-1.1E-16,-2.2E-16));
#810 = ORIENTED_EDGE('',*,*,#407,.F.);
#811 = PLANE('',#812);
#812 = AXIS2_PLACEMENT_3D('',#813,#814,#815);
#813 = CARTESIAN_POINT('',(-2.11E-15,-4.8,-9.4));
#814 = DIRECTION('',(0.,1.1E-16,1.));
#815 = DIRECTION('',(-2.2E-16,-1.,1.1E-16));
#816 = ADVANCED_FACE('',(#817,#839),#850,.T.);
#817 = FACE_BOUND('',#818,.F.);
#818 = EDGE_LOOP('',(#819,#820,#821,#822,#829,#830,#837,#838));
#819 = ORIENTED_EDGE('',*,*,#391,.T.);
#820 = ORIENTED_EDGE('',*,*,#749,.F.);
#821 = ORIENTED_EDGE('',*,*,#549,.T.);
#822 = ORIENTED_EDGE('',*,*,#823,.F.);
#823 = EDGE_CURVE('',#653,#550,#824,.T.);
#824 = CIRCLE('',#825,2.3);
#825 = AXIS2_PLACEMENT_3D('',#826,#827,#828);
#826 = CARTESIAN_POINT('',(4.,-9.4,9.4));
#827 = DIRECTION('',(1.,-3.3E-16,-3.3E-16));
#828 = DIRECTION('',(3.3E-16,1.,3.3E-16));
#829 = ORIENTED_EDGE('',*,*,#660,.T.);
#830 = ORIENTED_EDGE('',*,*,#831,.F.);
#831 = EDGE_CURVE('',#495,#661,#832,.T.);
#832 = CIRCLE('',#833,2.3);
#833 = AXIS2_PLACEMENT_3D('',#834,#835,#836);
#834 = CARTESIAN_POINT('',(4.,9.4,9.4));
#835 = DIRECTION('',(1.,-3.3E-16,-3.3E-16));
#836 = DIRECTION('',(3.3E-16,1.,3.3E-16));
#837 = ORIENTED_EDGE('',*,*,#502,.T.);
#838 = ORIENTED_EDGE('',*,*,#725,.F.);
#839 = FACE_BOUND('',#840,.F.);
#840 = EDGE_LOOP('',(#841));
#841 = ORIENTED_EDGE('',*,*,#842,.T.);
#842 = EDGE_CURVE('',#843,#843,#845,.T.);
#843 = VERTEX_POINT('',#844);
#844 = CARTESIAN_POINT('',(4.,3.55,1.E-15));
#845 = CIRCLE('',#846,3.55);
#846 = AXIS2_PLACEMENT_3D('',#847,#848,#849);
#847 = CARTESIAN_POINT('',(4.,0.,3.552713678801E-15));
#848 = DIRECTION('',(1.,-3.3E-16,-3.3E-16));
#849 = DIRECTION('',(3.3E-16,1.,3.3E-16));
#850 = PLANE('',#851);
#851 = AXIS2_PLACEMENT_3D('',#852,#853,#854);
#852 = CARTESIAN_POINT('',(4.,2.E-17,3.552713678801E-15));
#853 = DIRECTION('',(1.,3.3E-16,3.3E-16));
#854 = DIRECTION('',(-3.3E-16,3.3E-16,1.));
#855 = ADVANCED_FACE('',(#856),#874,.T.);
#856 = FACE_BOUND('',#857,.T.);
#857 = EDGE_LOOP('',(#858,#866,#872,#873));
#858 = ORIENTED_EDGE('',*,*,#859,.T.);
#859 = EDGE_CURVE('',#511,#860,#862,.T.);
#860 = VERTEX_POINT('',#861);
#861 = CARTESIAN_POINT('',(-8.,9.4,-7.1));
#862 = LINE('',#863,#864);
#863 = CARTESIAN_POINT('',(1.3E-15,9.4,-7.1));
#864 = VECTOR('',#865,1.);
#865 = DIRECTION('',(-1.,-1.1E-16,-2.2E-16));
#866 = ORIENTED_EDGE('',*,*,#867,.T.);
#867 = EDGE_CURVE('',#860,#429,#868,.T.);
#868 = LINE('',#869,#870);
#869 = CARTESIAN_POINT('',(-8.,9.4,-7.1));
#870 = VECTOR('',#871,1.);
#871 = DIRECTION('',(2.2E-16,2.2E-16,1.));
#872 = ORIENTED_EDGE('',*,*,#428,.F.);
#873 = ORIENTED_EDGE('',*,*,#518,.T.);
#874 = PLANE('',#875);
#875 = AXIS2_PLACEMENT_3D('',#876,#877,#878);
#876 = CARTESIAN_POINT('',(1.3E-15,9.4,-7.1));
#877 = DIRECTION('',(1.1E-16,1.,0.));
#878 = DIRECTION('',(1.1E-16,-1.21E-32,1.));
#879 = ADVANCED_FACE('',(#880),#892,.F.);
#880 = FACE_BOUND('',#881,.F.);
#881 = EDGE_LOOP('',(#882,#883,#884,#885));
#882 = ORIENTED_EDGE('',*,*,#867,.T.);
#883 = ORIENTED_EDGE('',*,*,#436,.T.);
#884 = ORIENTED_EDGE('',*,*,#773,.T.);
#885 = ORIENTED_EDGE('',*,*,#886,.F.);
#886 = EDGE_CURVE('',#860,#774,#887,.T.);
#887 = CIRCLE('',#888,2.3);
#888 = AXIS2_PLACEMENT_3D('',#889,#890,#891);
#889 = CARTESIAN_POINT('',(-8.,9.4,-9.4));
#890 = DIRECTION('',(-1.,2.2E-16,2.2E-16));
#891 = DIRECTION('',(2.2E-16,1.,2.2E-16));
#892 = PLANE('',#893);
#893 = AXIS2_PLACEMENT_3D('',#894,#895,#896);
#894 = CARTESIAN_POINT('',(-8.,-4.2E-16,-3.552713678801E-15));
#895 = DIRECTION('',(1.,2.2E-16,2.2E-16));
#896 = DIRECTION('',(-2.2E-16,2.2E-16,1.));
#897 = ADVANCED_FACE('',(#898),#916,.F.);
#898 = FACE_BOUND('',#899,.F.);
#899 = EDGE_LOOP('',(#900,#908,#914,#915));
#900 = ORIENTED_EDGE('',*,*,#901,.T.);
#901 = EDGE_CURVE('',#540,#902,#904,.T.);
#902 = VERTEX_POINT('',#903);
#903 = CARTESIAN_POINT('',(-8.,-9.4,-7.1));
#904 = LINE('',#905,#906);
#905 = CARTESIAN_POINT('',(-2.88E-15,-9.4,-7.1));
#906 = VECTOR('',#907,1.);
#907 = DIRECTION('',(-1.,-1.1E-16,-2.2E-16));
#908 = ORIENTED_EDGE('',*,*,#909,.T.);
#909 = EDGE_CURVE('',#902,#469,#910,.T.);
#910 = LINE('',#911,#912);
#911 = CARTESIAN_POINT('',(-8.,-9.4,-7.1));
#912 = VECTOR('',#913,1.);
#913 = DIRECTION('',(2.2E-16,2.2E-16,1.));
#914 = ORIENTED_EDGE('',*,*,#477,.F.);
#915 = ORIENTED_EDGE('',*,*,#572,.F.);
#916 = PLANE('',#917);
#917 = AXIS2_PLACEMENT_3D('',#918,#919,#920);
#918 = CARTESIAN_POINT('',(-2.88E-15,-9.4,-7.1));
#919 = DIRECTION('',(1.1E-16,1.,0.));
#920 = DIRECTION('',(1.1E-16,-1.21E-32,1.));
#921 = ADVANCED_FACE('',(#922),#934,.F.);
#922 = FACE_BOUND('',#923,.F.);
#923 = EDGE_LOOP('',(#924,#925,#926,#927));
#924 = ORIENTED_EDGE('',*,*,#797,.F.);
#925 = ORIENTED_EDGE('',*,*,#468,.T.);
#926 = ORIENTED_EDGE('',*,*,#909,.F.);
#927 = ORIENTED_EDGE('',*,*,#928,.F.);
#928 = EDGE_CURVE('',#798,#902,#929,.T.);
#929 = CIRCLE('',#930,2.3);
#930 = AXIS2_PLACEMENT_3D('',#931,#932,#933);
#931 = CARTESIAN_POINT('',(-8.,-9.4,-9.4));
#932 = DIRECTION('',(-1.,2.2E-16,2.2E-16));
#933 = DIRECTION('',(2.2E-16,1.,2.2E-16));
#934 = PLANE('',#935);
#935 = AXIS2_PLACEMENT_3D('',#936,#937,#938);
#936 = CARTESIAN_POINT('',(-8.,-4.2E-16,-3.552713678801E-15));
#937 = DIRECTION('',(1.,2.2E-16,2.2E-16));
#938 = DIRECTION('',(-2.2E-16,2.2E-16,1.));
#939 = ADVANCED_FACE('',(#940),#952,.T.);
#940 = FACE_BOUND('',#941,.F.);
#941 = EDGE_LOOP('',(#942,#943,#944,#945));
#942 = ORIENTED_EDGE('',*,*,#492,.T.);
#943 = ORIENTED_EDGE('',*,*,#831,.T.);
#944 = ORIENTED_EDGE('',*,*,#668,.F.);
#945 = ORIENTED_EDGE('',*,*,#946,.F.);
#946 = EDGE_CURVE('',#493,#669,#947,.T.);
#947 = CIRCLE('',#948,2.3);
#948 = AXIS2_PLACEMENT_3D('',#949,#950,#951);
#949 = CARTESIAN_POINT('',(6.26E-15,9.4,9.4));
#950 = DIRECTION('',(1.,-3.3E-16,-3.3E-16));
#951 = DIRECTION('',(3.3E-16,1.,3.3E-16));
#952 = CYLINDRICAL_SURFACE('',#953,2.3);
#953 = AXIS2_PLACEMENT_3D('',#954,#955,#956);
#954 = CARTESIAN_POINT('',(5.22E-15,9.4,9.4));
#955 = DIRECTION('',(-1.,-1.1E-16,-2.2E-16));
#956 = DIRECTION('',(-1.1E-16,1.,2.2E-16));
#957 = ADVANCED_FACE('',(#958),#976,.F.);
#958 = FACE_BOUND('',#959,.F.);
#959 = EDGE_LOOP('',(#960,#968,#974,#975));
#960 = ORIENTED_EDGE('',*,*,#961,.T.);
#961 = EDGE_CURVE('',#493,#962,#964,.T.);
#962 = VERTEX_POINT('',#963);
#963 = CARTESIAN_POINT('',(-8.,9.4,7.1));
#964 = LINE('',#965,#966);
#965 = CARTESIAN_POINT('',(2.88E-15,9.4,7.1));
#966 = VECTOR('',#967,1.);
#967 = DIRECTION('',(-1.,-1.1E-16,-2.2E-16));
#968 = ORIENTED_EDGE('',*,*,#969,.T.);
#969 = EDGE_CURVE('',#962,#595,#970,.T.);
#970 = LINE('',#971,#972);
#971 = CARTESIAN_POINT('',(-8.,9.4,7.1));
#972 = VECTOR('',#973,1.);
#973 = DIRECTION('',(-2.2E-16,-2.2E-16,-1.));
#974 = ORIENTED_EDGE('',*,*,#603,.F.);
#975 = ORIENTED_EDGE('',*,*,#525,.F.);
#976 = PLANE('',#977);
#977 = AXIS2_PLACEMENT_3D('',#978,#979,#980);
#978 = CARTESIAN_POINT('',(2.88E-15,9.4,7.1));
#979 = DIRECTION('',(-1.1E-16,-1.,0.));
#980 = DIRECTION('',(-1.1E-16,1.21E-32,-1.));
#981 = ADVANCED_FACE('',(#982),#994,.T.);
#982 = FACE_BOUND('',#983,.F.);
#983 = EDGE_LOOP('',(#984,#985,#986,#987));
#984 = ORIENTED_EDGE('',*,*,#650,.T.);
#985 = ORIENTED_EDGE('',*,*,#823,.T.);
#986 = ORIENTED_EDGE('',*,*,#557,.F.);
#987 = ORIENTED_EDGE('',*,*,#988,.F.);
#988 = EDGE_CURVE('',#651,#558,#989,.T.);
#989 = CIRCLE('',#990,2.3);
#990 = AXIS2_PLACEMENT_3D('',#991,#992,#993);
#991 = CARTESIAN_POINT('',(0.,-9.4,9.4));
#992 = DIRECTION('',(1.,-3.3E-16,-3.3E-16));
#993 = DIRECTION('',(3.3E-16,1.,3.3E-16));
#994 = CYLINDRICAL_SURFACE('',#995,2.3);
#995 = AXIS2_PLACEMENT_3D('',#996,#997,#998);
#996 = CARTESIAN_POINT('',(-1.04E-15,-9.4,9.4));
#997 = DIRECTION('',(-1.,-1.1E-16,-2.2E-16));
#998 = DIRECTION('',(-1.1E-16,1.,2.2E-16));
#999 = ADVANCED_FACE('',(#1000),#1018,.F.);
#1000 = FACE_BOUND('',#1001,.F.);
#1001 = EDGE_LOOP('',(#1002,#1003,#1011,#1017));
#1002 = ORIENTED_EDGE('',*,*,#618,.T.);
#1003 = ORIENTED_EDGE('',*,*,#1004,.T.);
#1004 = EDGE_CURVE('',#619,#1005,#1007,.T.);
#1005 = VERTEX_POINT('',#1006);
#1006 = CARTESIAN_POINT('',(-8.,-9.4,7.1));
#1007 = LINE('',#1008,#1009);
#1008 = CARTESIAN_POINT('',(-8.,-9.4,4.8));
#1009 = VECTOR('',#1010,1.);
#1010 = DIRECTION('',(2.2E-16,2.2E-16,1.));
#1011 = ORIENTED_EDGE('',*,*,#1012,.F.);
#1012 = EDGE_CURVE('',#558,#1005,#1013,.T.);
#1013 = LINE('',#1014,#1015);
#1014 = CARTESIAN_POINT('',(-1.3E-15,-9.4,7.1));
#1015 = VECTOR('',#1016,1.);
#1016 = DIRECTION('',(-1.,-1.1E-16,-2.2E-16));
#1017 = ORIENTED_EDGE('',*,*,#565,.F.);
#1018 = PLANE('',#1019);
#1019 = AXIS2_PLACEMENT_3D('',#1020,#1021,#1022);
#1020 = CARTESIAN_POINT('',(-1.55E-15,-9.4,4.8));
#1021 = DIRECTION('',(1.1E-16,1.,0.));
#1022 = DIRECTION('',(1.1E-16,-1.21E-32,1.));
#1023 = ADVANCED_FACE('',(#1024),#1042,.F.);
#1024 = FACE_BOUND('',#1025,.F.);
#1025 = EDGE_LOOP('',(#1026,#1027,#1035,#1041));
#1026 = ORIENTED_EDGE('',*,*,#586,.T.);
#1027 = ORIENTED_EDGE('',*,*,#1028,.T.);
#1028 = EDGE_CURVE('',#587,#1029,#1031,.T.);
#1029 = VERTEX_POINT('',#1030);
#1030 = CARTESIAN_POINT('',(-8.,7.1,9.4));
#1031 = LINE('',#1032,#1033);
#1032 = CARTESIAN_POINT('',(-8.,4.8,9.4));
#1033 = VECTOR('',#1034,1.);
#1034 = DIRECTION('',(2.2E-16,1.,2.2E-16));
#1035 = ORIENTED_EDGE('',*,*,#1036,.F.);
#1036 = EDGE_CURVE('',#669,#1029,#1037,.T.);
#1037 = LINE('',#1038,#1039);
#1038 = CARTESIAN_POINT('',(2.62E-15,7.1,9.4));
#1039 = VECTOR('',#1040,1.);
#1040 = DIRECTION('',(-1.,-1.1E-16,-2.2E-16));
#1041 = ORIENTED_EDGE('',*,*,#676,.F.);
#1042 = PLANE('',#1043);
#1043 = AXIS2_PLACEMENT_3D('',#1044,#1045,#1046);
#1044 = CARTESIAN_POINT('',(2.11E-15,4.8,9.4));
#1045 = DIRECTION('',(0.,-1.1E-16,-1.));
#1046 = DIRECTION('',(2.2E-16,1.,-1.1E-16));
#1047 = ADVANCED_FACE('',(#1048),#1060,.F.);
#1048 = FACE_BOUND('',#1049,.F.);
#1049 = EDGE_LOOP('',(#1050,#1051,#1052,#1053));
#1050 = ORIENTED_EDGE('',*,*,#1028,.F.);
#1051 = ORIENTED_EDGE('',*,*,#594,.T.);
#1052 = ORIENTED_EDGE('',*,*,#969,.F.);
#1053 = ORIENTED_EDGE('',*,*,#1054,.F.);
#1054 = EDGE_CURVE('',#1029,#962,#1055,.T.);
#1055 = CIRCLE('',#1056,2.3);
#1056 = AXIS2_PLACEMENT_3D('',#1057,#1058,#1059);
#1057 = CARTESIAN_POINT('',(-8.,9.4,9.4));
#1058 = DIRECTION('',(-1.,2.2E-16,2.2E-16));
#1059 = DIRECTION('',(2.2E-16,1.,2.2E-16));
#1060 = PLANE('',#1061);
#1061 = AXIS2_PLACEMENT_3D('',#1062,#1063,#1064);
#1062 = CARTESIAN_POINT('',(-8.,-4.2E-16,-3.552713678801E-15));
#1063 = DIRECTION('',(1.,2.2E-16,2.2E-16));
#1064 = DIRECTION('',(-2.2E-16,2.2E-16,1.));
#1065 = ADVANCED_FACE('',(#1066),#1084,.F.);
#1066 = FACE_BOUND('',#1067,.F.);
#1067 = EDGE_LOOP('',(#1068,#1076,#1082,#1083));
#1068 = ORIENTED_EDGE('',*,*,#1069,.T.);
#1069 = EDGE_CURVE('',#651,#1070,#1072,.T.);
#1070 = VERTEX_POINT('',#1071);
#1071 = CARTESIAN_POINT('',(-8.,-7.1,9.4));
#1072 = LINE('',#1073,#1074);
#1073 = CARTESIAN_POINT('',(-5.3E-16,-7.1,9.4));
#1074 = VECTOR('',#1075,1.);
#1075 = DIRECTION('',(-1.,-1.1E-16,-2.2E-16));
#1076 = ORIENTED_EDGE('',*,*,#1077,.T.);
#1077 = EDGE_CURVE('',#1070,#627,#1078,.T.);
#1078 = LINE('',#1079,#1080);
#1079 = CARTESIAN_POINT('',(-8.,-7.1,9.4));
#1080 = VECTOR('',#1081,1.);
#1081 = DIRECTION('',(2.2E-16,1.,2.2E-16));
#1082 = ORIENTED_EDGE('',*,*,#635,.F.);
#1083 = ORIENTED_EDGE('',*,*,#683,.F.);
#1084 = PLANE('',#1085);
#1085 = AXIS2_PLACEMENT_3D('',#1086,#1087,#1088);
#1086 = CARTESIAN_POINT('',(-5.3E-16,-7.1,9.4));
#1087 = DIRECTION('',(0.,-1.1E-16,-1.));
#1088 = DIRECTION('',(2.2E-16,1.,-1.1E-16));
#1089 = ADVANCED_FACE('',(#1090),#1102,.F.);
#1090 = FACE_BOUND('',#1091,.F.);
#1091 = EDGE_LOOP('',(#1092,#1093,#1094,#1101));
#1092 = ORIENTED_EDGE('',*,*,#626,.T.);
#1093 = ORIENTED_EDGE('',*,*,#1077,.F.);
#1094 = ORIENTED_EDGE('',*,*,#1095,.F.);
#1095 = EDGE_CURVE('',#1005,#1070,#1096,.T.);
#1096 = CIRCLE('',#1097,2.3);
#1097 = AXIS2_PLACEMENT_3D('',#1098,#1099,#1100);
#1098 = CARTESIAN_POINT('',(-8.,-9.4,9.4));
#1099 = DIRECTION('',(-1.,2.2E-16,2.2E-16));
#1100 = DIRECTION('',(2.2E-16,1.,2.2E-16));
#1101 = ORIENTED_EDGE('',*,*,#1004,.F.);
#1102 = PLANE('',#1103);
#1103 = AXIS2_PLACEMENT_3D('',#1104,#1105,#1106);
#1104 = CARTESIAN_POINT('',(-8.,-4.2E-16,-3.552713678801E-15));
#1105 = DIRECTION('',(1.,2.2E-16,2.2E-16));
#1106 = DIRECTION('',(-2.2E-16,2.2E-16,1.));
#1107 = ADVANCED_FACE('',(#1108),#1119,.F.);
#1108 = FACE_BOUND('',#1109,.T.);
#1109 = EDGE_LOOP('',(#1110,#1111,#1117,#1118));
#1110 = ORIENTED_EDGE('',*,*,#707,.T.);
#1111 = ORIENTED_EDGE('',*,*,#1112,.T.);
#1112 = EDGE_CURVE('',#708,#843,#1113,.T.);
#1113 = LINE('',#1114,#1115);
#1114 = CARTESIAN_POINT('',(1.18E-15,3.55,7.9E-16));
#1115 = VECTOR('',#1116,1.);
#1116 = DIRECTION('',(1.,2.2E-16,3.3E-16));
#1117 = ORIENTED_EDGE('',*,*,#842,.T.);
#1118 = ORIENTED_EDGE('',*,*,#1112,.F.);
#1119 = CYLINDRICAL_SURFACE('',#1120,3.55);
#1120 = AXIS2_PLACEMENT_3D('',#1121,#1122,#1123);
#1121 = CARTESIAN_POINT('',(0.,0.,0.));
#1122 = DIRECTION('',(-1.,-1.1E-16,-2.2E-16));
#1123 = DIRECTION('',(-1.1E-16,1.,2.2E-16));
#1124 = ADVANCED_FACE('',(#1125),#1131,.T.);
#1125 = FACE_BOUND('',#1126,.F.);
#1126 = EDGE_LOOP('',(#1127,#1128,#1129,#1130));
#1127 = ORIENTED_EDGE('',*,*,#859,.T.);
#1128 = ORIENTED_EDGE('',*,*,#886,.T.);
#1129 = ORIENTED_EDGE('',*,*,#781,.F.);
#1130 = ORIENTED_EDGE('',*,*,#733,.T.);
#1131 = CYLINDRICAL_SURFACE('',#1132,2.3);
#1132 = AXIS2_PLACEMENT_3D('',#1133,#1134,#1135);
#1133 = CARTESIAN_POINT('',(1.04E-15,9.4,-9.4));
#1134 = DIRECTION('',(1.,0.,1.1E-16));
#1135 = DIRECTION('',(-1.21E-32,1.,1.1E-16));
#1136 = ADVANCED_FACE('',(#1137),#1143,.T.);
#1137 = FACE_BOUND('',#1138,.F.);
#1138 = EDGE_LOOP('',(#1139,#1140,#1141,#1142));
#1139 = ORIENTED_EDGE('',*,*,#805,.T.);
#1140 = ORIENTED_EDGE('',*,*,#928,.T.);
#1141 = ORIENTED_EDGE('',*,*,#901,.F.);
#1142 = ORIENTED_EDGE('',*,*,#757,.T.);
#1143 = CYLINDRICAL_SURFACE('',#1144,2.3);
#1144 = AXIS2_PLACEMENT_3D('',#1145,#1146,#1147);
#1145 = CARTESIAN_POINT('',(-3.13E-15,-9.4,-9.4));
#1146 = DIRECTION('',(1.,0.,1.1E-16));
#1147 = DIRECTION('',(-1.21E-32,1.,1.1E-16));
#1148 = ADVANCED_FACE('',(#1149),#1155,.T.);
#1149 = FACE_BOUND('',#1150,.F.);
#1150 = EDGE_LOOP('',(#1151,#1152,#1153,#1154));
#1151 = ORIENTED_EDGE('',*,*,#1036,.T.);
#1152 = ORIENTED_EDGE('',*,*,#1054,.T.);
#1153 = ORIENTED_EDGE('',*,*,#961,.F.);
#1154 = ORIENTED_EDGE('',*,*,#946,.T.);
#1155 = CYLINDRICAL_SURFACE('',#1156,2.3);
#1156 = AXIS2_PLACEMENT_3D('',#1157,#1158,#1159);
#1157 = CARTESIAN_POINT('',(3.13E-15,9.4,9.4));
#1158 = DIRECTION('',(1.,0.,1.1E-16));
#1159 = DIRECTION('',(-1.21E-32,1.,1.1E-16));
#1160 = ADVANCED_FACE('',(#1161),#1167,.T.);
#1161 = FACE_BOUND('',#1162,.F.);
#1162 = EDGE_LOOP('',(#1163,#1164,#1165,#1166));
#1163 = ORIENTED_EDGE('',*,*,#1012,.T.);
#1164 = ORIENTED_EDGE('',*,*,#1095,.T.);
#1165 = ORIENTED_EDGE('',*,*,#1069,.F.);
#1166 = ORIENTED_EDGE('',*,*,#988,.T.);
#1167 = CYLINDRICAL_SURFACE('',#1168,2.3);
#1168 = AXIS2_PLACEMENT_3D('',#1169,#1170,#1171);
#1169 = CARTESIAN_POINT('',(-1.04E-15,-9.4,9.4));
#1170 = DIRECTION('',(1.,0.,1.1E-16));
#1171 = DIRECTION('',(-1.21E-32,1.,1.1E-16));
#1172 = ( GEOMETRIC_REPRESENTATION_CONTEXT(3) 
GLOBAL_UNCERTAINTY_ASSIGNED_CONTEXT((#1176)) 
GLOBAL_UNIT_ASSIGNED_CONTEXT((#1173,#1174,#1175)) REPRESENTATION_CONTEXT
('Context #1','3D Context with UNIT and UNCERTAINTY') );
#1173 = ( LENGTH_UNIT() NAMED_UNIT(*) SI_UNIT(.MILLI.,.METRE.) );
#1174 = ( NAMED_UNIT(*) PLANE_ANGLE_UNIT() SI_UNIT($,.RADIAN.) );
#1175 = ( NAMED_UNIT(*) SI_UNIT($,.STERADIAN.) SOLID_ANGLE_UNIT() );
#1176 = UNCERTAINTY_MEASURE_WITH_UNIT(LENGTH_MEASURE(1.E-07),#1173,
  'distance_accuracy_value','confusion accuracy');
#1177 = CONTEXT_DEPENDENT_SHAPE_REPRESENTATION(#1178,#1180);
#1178 = ( REPRESENTATION_RELATIONSHIP('','',#32,#10) 
REPRESENTATION_RELATIONSHIP_WITH_TRANSFORMATION(#1179) 
SHAPE_REPRESENTATION_RELATIONSHIP() );
#1179 = ITEM_DEFINED_TRANSFORMATION('','',#11,#15);
#1180 = PRODUCT_DEFINITION_SHAPE('Placement','Placement of an item',
  #1181);
#1181 = NEXT_ASSEMBLY_USAGE_OCCURRENCE('1','cubeConnector','',#5,#27,$);
#1182 = PRODUCT_RELATED_PRODUCT_CATEGORY('part',$,(#29));
#1183 = MECHANICAL_DESIGN_GEOMETRIC_PRESENTATION_REPRESENTATION('',(
    #1184),#1172);
#1184 = STYLED_ITEM('color',(#1185),#33);
#1185 = PRESENTATION_STYLE_ASSIGNMENT((#1186,#1192));
#1186 = SURFACE_STYLE_USAGE(.BOTH.,#1187);
#1187 = SURFACE_SIDE_STYLE('',(#1188));
#1188 = SURFACE_STYLE_FILL_AREA(#1189);
#1189 = FILL_AREA_STYLE('',(#1190));
#1190 = FILL_AREA_STYLE_COLOUR('',#1191);
#1191 = COLOUR_RGB('',0.447058818107,0.474509808674,0.501960817233);
#1192 = CURVE_STYLE('',#1193,POSITIVE_LENGTH_MEASURE(0.1),#1194);
#1193 = DRAUGHTING_PRE_DEFINED_CURVE_FONT('continuous');
#1194 = COLOUR_RGB('',9.803921802644E-02,9.803921802644E-02,
  9.803921802644E-02);
ENDSEC;
END-ISO-10303-21;
