ISO-10303-21;
HEADER;
FILE_DESCRIPTION(('FreeCAD Model'),'2;1');
FILE_NAME('Open CASCADE Shape Model','2024-11-08T14:05:39',(''),(''),
  'Open CASCADE STEP processor 7.7','FreeCAD','Unknown');
FILE_SCHEMA(('AUTOMOTIVE_DESIGN { 1 0 10303 214 1 1 1 1 }'));
ENDSEC;
DATA;
#1 = APPLICATION_PROTOCOL_DEFINITION('international standard',
  'automotive_design',2000,#2);
#2 = APPLICATION_CONTEXT(
  'core data for automotive mechanical design processes');
#3 = SHAPE_DEFINITION_REPRESENTATION(#4,#10);
#4 = PRODUCT_DEFINITION_SHAPE('','',#5);
#5 = PRODUCT_DEFINITION('design','',#6,#9);
#6 = PRODUCT_DEFINITION_FORMATION('','',#7);
#7 = PRODUCT('motorConnector','motorConnector','',(#8));
#8 = PRODUCT_CONTEXT('',#2,'mechanical');
#9 = PRODUCT_DEFINITION_CONTEXT('part definition',#2,'design');
#10 = ADVANCED_BREP_SHAPE_REPRESENTATION('',(#11,#15),#496);
#11 = AXIS2_PLACEMENT_3D('',#12,#13,#14);
#12 = CARTESIAN_POINT('',(0.,0.,0.));
#13 = DIRECTION('',(0.,0.,1.));
#14 = DIRECTION('',(1.,0.,-0.));
#15 = MANIFOLD_SOLID_BREP('',#16);
#16 = CLOSED_SHELL('',(#17,#57,#124,#149,#174,#236,#253,#270,#287,#304,
    #316,#341,#386,#418,#442,#467,#484));
#17 = ADVANCED_FACE('',(#18),#52,.T.);
#18 = FACE_BOUND('',#19,.T.);
#19 = EDGE_LOOP('',(#20,#30,#38,#46));
#20 = ORIENTED_EDGE('',*,*,#21,.F.);
#21 = EDGE_CURVE('',#22,#24,#26,.T.);
#22 = VERTEX_POINT('',#23);
#23 = CARTESIAN_POINT('',(1.E-15,3.5,-5.5));
#24 = VERTEX_POINT('',#25);
#25 = CARTESIAN_POINT('',(-1.E-15,-3.5,-5.5));
#26 = LINE('',#27,#28);
#27 = CARTESIAN_POINT('',(-7.4E-16,5.5,-5.5));
#28 = VECTOR('',#29,1.);
#29 = DIRECTION('',(-9.E-17,-1.,9.E-17));
#30 = ORIENTED_EDGE('',*,*,#31,.T.);
#31 = EDGE_CURVE('',#22,#32,#34,.T.);
#32 = VERTEX_POINT('',#33);
#33 = CARTESIAN_POINT('',(2.,3.5,-5.5));
#34 = LINE('',#35,#36);
#35 = CARTESIAN_POINT('',(-9.2E-16,3.5,-5.5));
#36 = VECTOR('',#37,1.);
#37 = DIRECTION('',(1.,-9.E-17,-2.2E-16));
#38 = ORIENTED_EDGE('',*,*,#39,.T.);
#39 = EDGE_CURVE('',#32,#40,#42,.T.);
#40 = VERTEX_POINT('',#41);
#41 = CARTESIAN_POINT('',(2.,-3.5,-5.5));
#42 = LINE('',#43,#44);
#43 = CARTESIAN_POINT('',(2.,5.5,-5.5));
#44 = VECTOR('',#45,1.);
#45 = DIRECTION('',(-9.E-17,-1.,9.E-17));
#46 = ORIENTED_EDGE('',*,*,#47,.F.);
#47 = EDGE_CURVE('',#24,#40,#48,.T.);
#48 = LINE('',#49,#50);
#49 = CARTESIAN_POINT('',(-1.52E-15,-3.5,-5.5));
#50 = VECTOR('',#51,1.);
#51 = DIRECTION('',(1.,-9.E-17,-2.2E-16));
#52 = PLANE('',#53);
#53 = AXIS2_PLACEMENT_3D('',#54,#55,#56);
#54 = CARTESIAN_POINT('',(-7.4E-16,5.5,-5.5));
#55 = DIRECTION('',(-2.2E-16,-9.E-17,-1.));
#56 = DIRECTION('',(-9.E-17,-1.,9.E-17));
#57 = ADVANCED_FACE('',(#58),#119,.F.);
#58 = FACE_BOUND('',#59,.F.);
#59 = EDGE_LOOP('',(#60,#61,#70,#78,#87,#95,#104,#112));
#60 = ORIENTED_EDGE('',*,*,#21,.F.);
#61 = ORIENTED_EDGE('',*,*,#62,.T.);
#62 = EDGE_CURVE('',#22,#63,#65,.T.);
#63 = VERTEX_POINT('',#64);
#64 = CARTESIAN_POINT('',(1.E-15,5.5,-3.5));
#65 = CIRCLE('',#66,2.);
#66 = AXIS2_PLACEMENT_3D('',#67,#68,#69);
#67 = CARTESIAN_POINT('',(0.,3.5,-3.5));
#68 = DIRECTION('',(1.,-9.E-17,-2.2E-16));
#69 = DIRECTION('',(9.E-17,1.,-9.E-17));
#70 = ORIENTED_EDGE('',*,*,#71,.F.);
#71 = EDGE_CURVE('',#72,#63,#74,.T.);
#72 = VERTEX_POINT('',#73);
#73 = CARTESIAN_POINT('',(1.E-15,5.5,3.5));
#74 = LINE('',#75,#76);
#75 = CARTESIAN_POINT('',(1.7E-15,5.5,5.5));
#76 = VECTOR('',#77,1.);
#77 = DIRECTION('',(-2.2E-16,-9.E-17,-1.));
#78 = ORIENTED_EDGE('',*,*,#79,.T.);
#79 = EDGE_CURVE('',#72,#80,#82,.T.);
#80 = VERTEX_POINT('',#81);
#81 = CARTESIAN_POINT('',(1.E-15,3.5,5.5));
#82 = CIRCLE('',#83,2.);
#83 = AXIS2_PLACEMENT_3D('',#84,#85,#86);
#84 = CARTESIAN_POINT('',(0.,3.5,3.5));
#85 = DIRECTION('',(1.,-9.E-17,-2.2E-16));
#86 = DIRECTION('',(9.E-17,1.,-9.E-17));
#87 = ORIENTED_EDGE('',*,*,#88,.F.);
#88 = EDGE_CURVE('',#89,#80,#91,.T.);
#89 = VERTEX_POINT('',#90);
#90 = CARTESIAN_POINT('',(-1.E-15,-3.5,5.5));
#91 = LINE('',#92,#93);
#92 = CARTESIAN_POINT('',(7.4E-16,-5.5,5.5));
#93 = VECTOR('',#94,1.);
#94 = DIRECTION('',(9.E-17,1.,-9.E-17));
#95 = ORIENTED_EDGE('',*,*,#96,.F.);
#96 = EDGE_CURVE('',#97,#89,#99,.T.);
#97 = VERTEX_POINT('',#98);
#98 = CARTESIAN_POINT('',(-1.E-15,-5.5,3.5));
#99 = CIRCLE('',#100,2.);
#100 = AXIS2_PLACEMENT_3D('',#101,#102,#103);
#101 = CARTESIAN_POINT('',(0.,-3.5,3.5));
#102 = DIRECTION('',(-1.,9.E-17,2.2E-16));
#103 = DIRECTION('',(9.E-17,1.,-9.E-17));
#104 = ORIENTED_EDGE('',*,*,#105,.F.);
#105 = EDGE_CURVE('',#106,#97,#108,.T.);
#106 = VERTEX_POINT('',#107);
#107 = CARTESIAN_POINT('',(-1.E-15,-5.5,-3.5));
#108 = LINE('',#109,#110);
#109 = CARTESIAN_POINT('',(-1.7E-15,-5.5,-5.5));
#110 = VECTOR('',#111,1.);
#111 = DIRECTION('',(2.2E-16,9.E-17,1.));
#112 = ORIENTED_EDGE('',*,*,#113,.F.);
#113 = EDGE_CURVE('',#24,#106,#114,.T.);
#114 = CIRCLE('',#115,2.);
#115 = AXIS2_PLACEMENT_3D('',#116,#117,#118);
#116 = CARTESIAN_POINT('',(0.,-3.5,-3.5));
#117 = DIRECTION('',(-1.,9.E-17,2.2E-16));
#118 = DIRECTION('',(9.E-17,1.,-9.E-17));
#119 = PLANE('',#120);
#120 = AXIS2_PLACEMENT_3D('',#121,#122,#123);
#121 = CARTESIAN_POINT('',(0.,-8.9E-16,-1.05E-15));
#122 = DIRECTION('',(1.,-9.E-17,2.2E-16));
#123 = DIRECTION('',(-2.2E-16,9.E-17,1.));
#124 = ADVANCED_FACE('',(#125),#144,.T.);
#125 = FACE_BOUND('',#126,.T.);
#126 = EDGE_LOOP('',(#127,#128,#136,#143));
#127 = ORIENTED_EDGE('',*,*,#62,.T.);
#128 = ORIENTED_EDGE('',*,*,#129,.T.);
#129 = EDGE_CURVE('',#63,#130,#132,.T.);
#130 = VERTEX_POINT('',#131);
#131 = CARTESIAN_POINT('',(2.,5.5,-3.5));
#132 = LINE('',#133,#134);
#133 = CARTESIAN_POINT('',(-3.E-16,5.5,-3.5));
#134 = VECTOR('',#135,1.);
#135 = DIRECTION('',(1.,-9.E-17,-2.2E-16));
#136 = ORIENTED_EDGE('',*,*,#137,.F.);
#137 = EDGE_CURVE('',#32,#130,#138,.T.);
#138 = CIRCLE('',#139,2.);
#139 = AXIS2_PLACEMENT_3D('',#140,#141,#142);
#140 = CARTESIAN_POINT('',(2.,3.5,-3.5));
#141 = DIRECTION('',(1.,-9.E-17,-2.2E-16));
#142 = DIRECTION('',(9.E-17,1.,-9.E-17));
#143 = ORIENTED_EDGE('',*,*,#31,.F.);
#144 = CYLINDRICAL_SURFACE('',#145,2.);
#145 = AXIS2_PLACEMENT_3D('',#146,#147,#148);
#146 = CARTESIAN_POINT('',(-4.7E-16,3.5,-3.5));
#147 = DIRECTION('',(1.,-9.E-17,-2.2E-16));
#148 = DIRECTION('',(-2.2E-16,-9.E-17,-1.));
#149 = ADVANCED_FACE('',(#150),#169,.T.);
#150 = FACE_BOUND('',#151,.F.);
#151 = EDGE_LOOP('',(#152,#153,#161,#168));
#152 = ORIENTED_EDGE('',*,*,#113,.T.);
#153 = ORIENTED_EDGE('',*,*,#154,.T.);
#154 = EDGE_CURVE('',#106,#155,#157,.T.);
#155 = VERTEX_POINT('',#156);
#156 = CARTESIAN_POINT('',(2.,-5.5,-3.5));
#157 = LINE('',#158,#159);
#158 = CARTESIAN_POINT('',(-1.25E-15,-5.5,-3.5));
#159 = VECTOR('',#160,1.);
#160 = DIRECTION('',(1.,-9.E-17,-2.2E-16));
#161 = ORIENTED_EDGE('',*,*,#162,.F.);
#162 = EDGE_CURVE('',#40,#155,#163,.T.);
#163 = CIRCLE('',#164,2.);
#164 = AXIS2_PLACEMENT_3D('',#165,#166,#167);
#165 = CARTESIAN_POINT('',(2.,-3.5,-3.5));
#166 = DIRECTION('',(-1.,9.E-17,2.2E-16));
#167 = DIRECTION('',(9.E-17,1.,-9.E-17));
#168 = ORIENTED_EDGE('',*,*,#47,.F.);
#169 = CYLINDRICAL_SURFACE('',#170,2.);
#170 = AXIS2_PLACEMENT_3D('',#171,#172,#173);
#171 = CARTESIAN_POINT('',(-1.08E-15,-3.5,-3.5));
#172 = DIRECTION('',(1.,-9.E-17,-2.2E-16));
#173 = DIRECTION('',(-2.2E-16,-9.E-17,-1.));
#174 = ADVANCED_FACE('',(#175,#220),#231,.T.);
#175 = FACE_BOUND('',#176,.T.);
#176 = EDGE_LOOP('',(#177,#178,#179,#187,#196,#204,#213,#219));
#177 = ORIENTED_EDGE('',*,*,#39,.F.);
#178 = ORIENTED_EDGE('',*,*,#137,.T.);
#179 = ORIENTED_EDGE('',*,*,#180,.F.);
#180 = EDGE_CURVE('',#181,#130,#183,.T.);
#181 = VERTEX_POINT('',#182);
#182 = CARTESIAN_POINT('',(2.,5.5,3.5));
#183 = LINE('',#184,#185);
#184 = CARTESIAN_POINT('',(2.,5.5,5.5));
#185 = VECTOR('',#186,1.);
#186 = DIRECTION('',(-2.2E-16,-9.E-17,-1.));
#187 = ORIENTED_EDGE('',*,*,#188,.T.);
#188 = EDGE_CURVE('',#181,#189,#191,.T.);
#189 = VERTEX_POINT('',#190);
#190 = CARTESIAN_POINT('',(2.,3.5,5.5));
#191 = CIRCLE('',#192,2.);
#192 = AXIS2_PLACEMENT_3D('',#193,#194,#195);
#193 = CARTESIAN_POINT('',(2.,3.5,3.5));
#194 = DIRECTION('',(1.,-9.E-17,-2.2E-16));
#195 = DIRECTION('',(9.E-17,1.,-9.E-17));
#196 = ORIENTED_EDGE('',*,*,#197,.F.);
#197 = EDGE_CURVE('',#198,#189,#200,.T.);
#198 = VERTEX_POINT('',#199);
#199 = CARTESIAN_POINT('',(2.,-3.5,5.5));
#200 = LINE('',#201,#202);
#201 = CARTESIAN_POINT('',(2.,-5.5,5.5));
#202 = VECTOR('',#203,1.);
#203 = DIRECTION('',(9.E-17,1.,-9.E-17));
#204 = ORIENTED_EDGE('',*,*,#205,.F.);
#205 = EDGE_CURVE('',#206,#198,#208,.T.);
#206 = VERTEX_POINT('',#207);
#207 = CARTESIAN_POINT('',(2.,-5.5,3.5));
#208 = CIRCLE('',#209,2.);
#209 = AXIS2_PLACEMENT_3D('',#210,#211,#212);
#210 = CARTESIAN_POINT('',(2.,-3.5,3.5));
#211 = DIRECTION('',(-1.,9.E-17,2.2E-16));
#212 = DIRECTION('',(9.E-17,1.,-9.E-17));
#213 = ORIENTED_EDGE('',*,*,#214,.F.);
#214 = EDGE_CURVE('',#155,#206,#215,.T.);
#215 = LINE('',#216,#217);
#216 = CARTESIAN_POINT('',(2.,-5.5,-5.5));
#217 = VECTOR('',#218,1.);
#218 = DIRECTION('',(2.2E-16,9.E-17,1.));
#219 = ORIENTED_EDGE('',*,*,#162,.F.);
#220 = FACE_BOUND('',#221,.T.);
#221 = EDGE_LOOP('',(#222));
#222 = ORIENTED_EDGE('',*,*,#223,.F.);
#223 = EDGE_CURVE('',#224,#224,#226,.T.);
#224 = VERTEX_POINT('',#225);
#225 = CARTESIAN_POINT('',(2.,0.,3.5));
#226 = CIRCLE('',#227,3.5);
#227 = AXIS2_PLACEMENT_3D('',#228,#229,#230);
#228 = CARTESIAN_POINT('',(2.,1.7E-16,-4.440892098501E-16));
#229 = DIRECTION('',(1.,-9.E-17,-2.2E-16));
#230 = DIRECTION('',(2.2E-16,9.E-17,1.));
#231 = PLANE('',#232);
#232 = AXIS2_PLACEMENT_3D('',#233,#234,#235);
#233 = CARTESIAN_POINT('',(2.,-1.41E-15,-8.881784197001E-16));
#234 = DIRECTION('',(1.,-9.E-17,2.2E-16));
#235 = DIRECTION('',(-2.2E-16,9.E-17,1.));
#236 = ADVANCED_FACE('',(#237),#248,.T.);
#237 = FACE_BOUND('',#238,.T.);
#238 = EDGE_LOOP('',(#239,#240,#246,#247));
#239 = ORIENTED_EDGE('',*,*,#71,.F.);
#240 = ORIENTED_EDGE('',*,*,#241,.T.);
#241 = EDGE_CURVE('',#72,#181,#242,.T.);
#242 = LINE('',#243,#244);
#243 = CARTESIAN_POINT('',(1.25E-15,5.5,3.5));
#244 = VECTOR('',#245,1.);
#245 = DIRECTION('',(1.,-9.E-17,-2.2E-16));
#246 = ORIENTED_EDGE('',*,*,#180,.T.);
#247 = ORIENTED_EDGE('',*,*,#129,.F.);
#248 = PLANE('',#249);
#249 = AXIS2_PLACEMENT_3D('',#250,#251,#252);
#250 = CARTESIAN_POINT('',(1.7E-15,5.5,5.5));
#251 = DIRECTION('',(9.E-17,1.,-9.E-17));
#252 = DIRECTION('',(-2.2E-16,-9.E-17,-1.));
#253 = ADVANCED_FACE('',(#254),#265,.T.);
#254 = FACE_BOUND('',#255,.T.);
#255 = EDGE_LOOP('',(#256,#257,#258,#259));
#256 = ORIENTED_EDGE('',*,*,#105,.F.);
#257 = ORIENTED_EDGE('',*,*,#154,.T.);
#258 = ORIENTED_EDGE('',*,*,#214,.T.);
#259 = ORIENTED_EDGE('',*,*,#260,.F.);
#260 = EDGE_CURVE('',#97,#206,#261,.T.);
#261 = LINE('',#262,#263);
#262 = CARTESIAN_POINT('',(3.E-16,-5.5,3.5));
#263 = VECTOR('',#264,1.);
#264 = DIRECTION('',(1.,-9.E-17,-2.2E-16));
#265 = PLANE('',#266);
#266 = AXIS2_PLACEMENT_3D('',#267,#268,#269);
#267 = CARTESIAN_POINT('',(-1.7E-15,-5.5,-5.5));
#268 = DIRECTION('',(-9.E-17,-1.,9.E-17));
#269 = DIRECTION('',(2.2E-16,9.E-17,1.));
#270 = ADVANCED_FACE('',(#271),#282,.T.);
#271 = FACE_BOUND('',#272,.T.);
#272 = EDGE_LOOP('',(#273,#274,#280,#281));
#273 = ORIENTED_EDGE('',*,*,#79,.T.);
#274 = ORIENTED_EDGE('',*,*,#275,.T.);
#275 = EDGE_CURVE('',#80,#189,#276,.T.);
#276 = LINE('',#277,#278);
#277 = CARTESIAN_POINT('',(1.52E-15,3.5,5.5));
#278 = VECTOR('',#279,1.);
#279 = DIRECTION('',(1.,-9.E-17,-2.2E-16));
#280 = ORIENTED_EDGE('',*,*,#188,.F.);
#281 = ORIENTED_EDGE('',*,*,#241,.F.);
#282 = CYLINDRICAL_SURFACE('',#283,2.);
#283 = AXIS2_PLACEMENT_3D('',#284,#285,#286);
#284 = CARTESIAN_POINT('',(1.08E-15,3.5,3.5));
#285 = DIRECTION('',(1.,-9.E-17,-2.2E-16));
#286 = DIRECTION('',(9.E-17,1.,-9.E-17));
#287 = ADVANCED_FACE('',(#288),#299,.T.);
#288 = FACE_BOUND('',#289,.F.);
#289 = EDGE_LOOP('',(#290,#291,#297,#298));
#290 = ORIENTED_EDGE('',*,*,#96,.T.);
#291 = ORIENTED_EDGE('',*,*,#292,.T.);
#292 = EDGE_CURVE('',#89,#198,#293,.T.);
#293 = LINE('',#294,#295);
#294 = CARTESIAN_POINT('',(9.2E-16,-3.5,5.5));
#295 = VECTOR('',#296,1.);
#296 = DIRECTION('',(1.,-9.E-17,-2.2E-16));
#297 = ORIENTED_EDGE('',*,*,#205,.F.);
#298 = ORIENTED_EDGE('',*,*,#260,.F.);
#299 = CYLINDRICAL_SURFACE('',#300,2.);
#300 = AXIS2_PLACEMENT_3D('',#301,#302,#303);
#301 = CARTESIAN_POINT('',(4.7E-16,-3.5,3.5));
#302 = DIRECTION('',(1.,-9.E-17,-2.2E-16));
#303 = DIRECTION('',(-9.E-17,-1.,9.E-17));
#304 = ADVANCED_FACE('',(#305),#311,.T.);
#305 = FACE_BOUND('',#306,.T.);
#306 = EDGE_LOOP('',(#307,#308,#309,#310));
#307 = ORIENTED_EDGE('',*,*,#88,.F.);
#308 = ORIENTED_EDGE('',*,*,#292,.T.);
#309 = ORIENTED_EDGE('',*,*,#197,.T.);
#310 = ORIENTED_EDGE('',*,*,#275,.F.);
#311 = PLANE('',#312);
#312 = AXIS2_PLACEMENT_3D('',#313,#314,#315);
#313 = CARTESIAN_POINT('',(7.4E-16,-5.5,5.5));
#314 = DIRECTION('',(2.2E-16,9.E-17,1.));
#315 = DIRECTION('',(9.E-17,1.,-9.E-17));
#316 = ADVANCED_FACE('',(#317),#336,.T.);
#317 = FACE_BOUND('',#318,.F.);
#318 = EDGE_LOOP('',(#319,#327,#334,#335));
#319 = ORIENTED_EDGE('',*,*,#320,.T.);
#320 = EDGE_CURVE('',#224,#321,#323,.T.);
#321 = VERTEX_POINT('',#322);
#322 = CARTESIAN_POINT('',(14.,-2.E-15,3.5));
#323 = LINE('',#324,#325);
#324 = CARTESIAN_POINT('',(2.,3.E-16,3.5));
#325 = VECTOR('',#326,1.);
#326 = DIRECTION('',(1.,-9.E-17,-2.2E-16));
#327 = ORIENTED_EDGE('',*,*,#328,.T.);
#328 = EDGE_CURVE('',#321,#321,#329,.T.);
#329 = CIRCLE('',#330,3.5);
#330 = AXIS2_PLACEMENT_3D('',#331,#332,#333);
#331 = CARTESIAN_POINT('',(14.,-8.7E-16,-3.552713678801E-15));
#332 = DIRECTION('',(1.,-9.E-17,-2.2E-16));
#333 = DIRECTION('',(2.2E-16,9.E-17,1.));
#334 = ORIENTED_EDGE('',*,*,#320,.F.);
#335 = ORIENTED_EDGE('',*,*,#223,.F.);
#336 = CYLINDRICAL_SURFACE('',#337,3.5);
#337 = AXIS2_PLACEMENT_3D('',#338,#339,#340);
#338 = CARTESIAN_POINT('',(2.,0.,-4.E-16));
#339 = DIRECTION('',(-1.,9.E-17,2.2E-16));
#340 = DIRECTION('',(2.2E-16,9.E-17,1.));
#341 = ADVANCED_FACE('',(#342,#345),#381,.T.);
#342 = FACE_BOUND('',#343,.T.);
#343 = EDGE_LOOP('',(#344));
#344 = ORIENTED_EDGE('',*,*,#328,.T.);
#345 = FACE_BOUND('',#346,.T.);
#346 = EDGE_LOOP('',(#347,#358,#366,#375));
#347 = ORIENTED_EDGE('',*,*,#348,.F.);
#348 = EDGE_CURVE('',#349,#351,#353,.T.);
#349 = VERTEX_POINT('',#350);
#350 = CARTESIAN_POINT('',(14.,2.,-1.5));
#351 = VERTEX_POINT('',#352);
#352 = CARTESIAN_POINT('',(14.,2.,1.5));
#353 = CIRCLE('',#354,2.5);
#354 = AXIS2_PLACEMENT_3D('',#355,#356,#357);
#355 = CARTESIAN_POINT('',(14.,1.21E-15,-3.552713678801E-15));
#356 = DIRECTION('',(1.,-9.E-17,-2.2E-16));
#357 = DIRECTION('',(2.2E-16,9.E-17,1.));
#358 = ORIENTED_EDGE('',*,*,#359,.T.);
#359 = EDGE_CURVE('',#349,#360,#362,.T.);
#360 = VERTEX_POINT('',#361);
#361 = CARTESIAN_POINT('',(14.,-2.,-1.5));
#362 = LINE('',#363,#364);
#363 = CARTESIAN_POINT('',(14.,2.,-1.5));
#364 = VECTOR('',#365,1.);
#365 = DIRECTION('',(-9.E-17,-1.,9.E-17));
#366 = ORIENTED_EDGE('',*,*,#367,.F.);
#367 = EDGE_CURVE('',#368,#360,#370,.T.);
#368 = VERTEX_POINT('',#369);
#369 = CARTESIAN_POINT('',(14.,-2.,1.5));
#370 = CIRCLE('',#371,2.5);
#371 = AXIS2_PLACEMENT_3D('',#372,#373,#374);
#372 = CARTESIAN_POINT('',(14.,1.21E-15,-3.552713678801E-15));
#373 = DIRECTION('',(1.,-9.E-17,-2.2E-16));
#374 = DIRECTION('',(2.2E-16,9.E-17,1.));
#375 = ORIENTED_EDGE('',*,*,#376,.F.);
#376 = EDGE_CURVE('',#351,#368,#377,.T.);
#377 = LINE('',#378,#379);
#378 = CARTESIAN_POINT('',(14.,2.,1.5));
#379 = VECTOR('',#380,1.);
#380 = DIRECTION('',(-9.E-17,-1.,9.E-17));
#381 = PLANE('',#382);
#382 = AXIS2_PLACEMENT_3D('',#383,#384,#385);
#383 = CARTESIAN_POINT('',(14.,-3.49E-15,0.));
#384 = DIRECTION('',(1.,-9.E-17,-3.E-17));
#385 = DIRECTION('',(3.E-17,9.E-17,1.));
#386 = ADVANCED_FACE('',(#387),#413,.F.);
#387 = FACE_BOUND('',#388,.F.);
#388 = EDGE_LOOP('',(#389,#397,#406,#412));
#389 = ORIENTED_EDGE('',*,*,#390,.T.);
#390 = EDGE_CURVE('',#349,#391,#393,.T.);
#391 = VERTEX_POINT('',#392);
#392 = CARTESIAN_POINT('',(8.,2.,-1.5));
#393 = LINE('',#394,#395);
#394 = CARTESIAN_POINT('',(14.,2.,-1.5));
#395 = VECTOR('',#396,1.);
#396 = DIRECTION('',(-1.,9.E-17,2.2E-16));
#397 = ORIENTED_EDGE('',*,*,#398,.T.);
#398 = EDGE_CURVE('',#391,#399,#401,.T.);
#399 = VERTEX_POINT('',#400);
#400 = CARTESIAN_POINT('',(8.,2.,1.5));
#401 = CIRCLE('',#402,2.5);
#402 = AXIS2_PLACEMENT_3D('',#403,#404,#405);
#403 = CARTESIAN_POINT('',(8.,1.73E-15,-1.7763568394E-15));
#404 = DIRECTION('',(1.,-9.E-17,-2.2E-16));
#405 = DIRECTION('',(2.2E-16,9.E-17,1.));
#406 = ORIENTED_EDGE('',*,*,#407,.F.);
#407 = EDGE_CURVE('',#351,#399,#408,.T.);
#408 = LINE('',#409,#410);
#409 = CARTESIAN_POINT('',(14.,2.,1.5));
#410 = VECTOR('',#411,1.);
#411 = DIRECTION('',(-1.,9.E-17,2.2E-16));
#412 = ORIENTED_EDGE('',*,*,#348,.F.);
#413 = CYLINDRICAL_SURFACE('',#414,2.5);
#414 = AXIS2_PLACEMENT_3D('',#415,#416,#417);
#415 = CARTESIAN_POINT('',(14.,0.,-3.5E-15));
#416 = DIRECTION('',(1.,-9.E-17,-2.2E-16));
#417 = DIRECTION('',(2.2E-16,9.E-17,1.));
#418 = ADVANCED_FACE('',(#419),#437,.F.);
#419 = FACE_BOUND('',#420,.F.);
#420 = EDGE_LOOP('',(#421,#422,#430,#436));
#421 = ORIENTED_EDGE('',*,*,#407,.T.);
#422 = ORIENTED_EDGE('',*,*,#423,.T.);
#423 = EDGE_CURVE('',#399,#424,#426,.T.);
#424 = VERTEX_POINT('',#425);
#425 = CARTESIAN_POINT('',(8.,-2.,1.5));
#426 = LINE('',#427,#428);
#427 = CARTESIAN_POINT('',(8.,2.,1.5));
#428 = VECTOR('',#429,1.);
#429 = DIRECTION('',(-9.E-17,-1.,9.E-17));
#430 = ORIENTED_EDGE('',*,*,#431,.F.);
#431 = EDGE_CURVE('',#368,#424,#432,.T.);
#432 = LINE('',#433,#434);
#433 = CARTESIAN_POINT('',(14.,-2.,1.5));
#434 = VECTOR('',#435,1.);
#435 = DIRECTION('',(-1.,9.E-17,2.2E-16));
#436 = ORIENTED_EDGE('',*,*,#376,.F.);
#437 = PLANE('',#438);
#438 = AXIS2_PLACEMENT_3D('',#439,#440,#441);
#439 = CARTESIAN_POINT('',(14.,2.,1.5));
#440 = DIRECTION('',(2.2E-16,9.E-17,1.));
#441 = DIRECTION('',(-9.E-17,-1.,9.E-17));
#442 = ADVANCED_FACE('',(#443),#462,.F.);
#443 = FACE_BOUND('',#444,.F.);
#444 = EDGE_LOOP('',(#445,#446,#455,#461));
#445 = ORIENTED_EDGE('',*,*,#431,.T.);
#446 = ORIENTED_EDGE('',*,*,#447,.T.);
#447 = EDGE_CURVE('',#424,#448,#450,.T.);
#448 = VERTEX_POINT('',#449);
#449 = CARTESIAN_POINT('',(8.,-2.,-1.5));
#450 = CIRCLE('',#451,2.5);
#451 = AXIS2_PLACEMENT_3D('',#452,#453,#454);
#452 = CARTESIAN_POINT('',(8.,1.73E-15,-1.7763568394E-15));
#453 = DIRECTION('',(1.,-9.E-17,-2.2E-16));
#454 = DIRECTION('',(2.2E-16,9.E-17,1.));
#455 = ORIENTED_EDGE('',*,*,#456,.F.);
#456 = EDGE_CURVE('',#360,#448,#457,.T.);
#457 = LINE('',#458,#459);
#458 = CARTESIAN_POINT('',(14.,-2.,-1.5));
#459 = VECTOR('',#460,1.);
#460 = DIRECTION('',(-1.,9.E-17,2.2E-16));
#461 = ORIENTED_EDGE('',*,*,#367,.F.);
#462 = CYLINDRICAL_SURFACE('',#463,2.5);
#463 = AXIS2_PLACEMENT_3D('',#464,#465,#466);
#464 = CARTESIAN_POINT('',(14.,0.,-3.5E-15));
#465 = DIRECTION('',(1.,-9.E-17,-2.2E-16));
#466 = DIRECTION('',(2.2E-16,9.E-17,1.));
#467 = ADVANCED_FACE('',(#468),#479,.T.);
#468 = FACE_BOUND('',#469,.T.);
#469 = EDGE_LOOP('',(#470,#471,#477,#478));
#470 = ORIENTED_EDGE('',*,*,#390,.T.);
#471 = ORIENTED_EDGE('',*,*,#472,.T.);
#472 = EDGE_CURVE('',#391,#448,#473,.T.);
#473 = LINE('',#474,#475);
#474 = CARTESIAN_POINT('',(8.,2.,-1.5));
#475 = VECTOR('',#476,1.);
#476 = DIRECTION('',(-9.E-17,-1.,9.E-17));
#477 = ORIENTED_EDGE('',*,*,#456,.F.);
#478 = ORIENTED_EDGE('',*,*,#359,.F.);
#479 = PLANE('',#480);
#480 = AXIS2_PLACEMENT_3D('',#481,#482,#483);
#481 = CARTESIAN_POINT('',(14.,2.,-1.5));
#482 = DIRECTION('',(2.2E-16,9.E-17,1.));
#483 = DIRECTION('',(-9.E-17,-1.,9.E-17));
#484 = ADVANCED_FACE('',(#485),#491,.T.);
#485 = FACE_BOUND('',#486,.T.);
#486 = EDGE_LOOP('',(#487,#488,#489,#490));
#487 = ORIENTED_EDGE('',*,*,#398,.T.);
#488 = ORIENTED_EDGE('',*,*,#423,.T.);
#489 = ORIENTED_EDGE('',*,*,#447,.T.);
#490 = ORIENTED_EDGE('',*,*,#472,.F.);
#491 = PLANE('',#492);
#492 = AXIS2_PLACEMENT_3D('',#493,#494,#495);
#493 = CARTESIAN_POINT('',(8.,5.3E-16,-8.881784197001E-16));
#494 = DIRECTION('',(1.,-9.E-17,2.2E-16));
#495 = DIRECTION('',(-2.2E-16,9.E-17,1.));
#496 = ( GEOMETRIC_REPRESENTATION_CONTEXT(3) 
GLOBAL_UNCERTAINTY_ASSIGNED_CONTEXT((#500)) GLOBAL_UNIT_ASSIGNED_CONTEXT
((#497,#498,#499)) REPRESENTATION_CONTEXT('Context #1',
  '3D Context with UNIT and UNCERTAINTY') );
#497 = ( LENGTH_UNIT() NAMED_UNIT(*) SI_UNIT(.MILLI.,.METRE.) );
#498 = ( NAMED_UNIT(*) PLANE_ANGLE_UNIT() SI_UNIT($,.RADIAN.) );
#499 = ( NAMED_UNIT(*) SI_UNIT($,.STERADIAN.) SOLID_ANGLE_UNIT() );
#500 = UNCERTAINTY_MEASURE_WITH_UNIT(LENGTH_MEASURE(1.E-07),#497,
  'distance_accuracy_value','confusion accuracy');
#501 = PRODUCT_RELATED_PRODUCT_CATEGORY('part',$,(#7));
#502 = MECHANICAL_DESIGN_GEOMETRIC_PRESENTATION_REPRESENTATION('',(#503)
  ,#496);
#503 = STYLED_ITEM('color',(#504),#15);
#504 = PRESENTATION_STYLE_ASSIGNMENT((#505,#511));
#505 = SURFACE_STYLE_USAGE(.BOTH.,#506);
#506 = SURFACE_SIDE_STYLE('',(#507));
#507 = SURFACE_STYLE_FILL_AREA(#508);
#508 = FILL_AREA_STYLE('',(#509));
#509 = FILL_AREA_STYLE_COLOUR('',#510);
#510 = COLOUR_RGB('',0.447058818107,0.474509808674,0.501960817233);
#511 = CURVE_STYLE('',#512,POSITIVE_LENGTH_MEASURE(0.1),#513);
#512 = DRAUGHTING_PRE_DEFINED_CURVE_FONT('continuous');
#513 = COLOUR_RGB('',9.803921802644E-02,9.803921802644E-02,
  9.803921802644E-02);
ENDSEC;
END-ISO-10303-21;
